<?xml version="1.0" standalone="no"?>
<!DOCTYPE svg PUBLIC "-//W3C//DTD SVG 1.1//EN" "http://www.w3.org/Graphics/SVG/1.1/DTD/svg11.dtd" >
<svg xmlns="http://www.w3.org/2000/svg">
<metadata>
This is a custom SVG webfont generated by Font Squirrel.
Copyright   : Copyright c Typographer Mediengestaltung 2000 All rights reserved
</metadata>
<defs>
<font id="ChelseaRegular" horiz-adv-x="1052" >
<font-face units-per-em="2048" ascent="1638" descent="-410" />
<missing-glyph horiz-adv-x="862" />
<glyph unicode=" "  horiz-adv-x="862" />
<glyph unicode="&#x09;" horiz-adv-x="862" />
<glyph unicode="&#xa0;" horiz-adv-x="862" />
<glyph unicode="!" horiz-adv-x="475" d="M117 1221q0 -47 28 -179q23 -98 40.5 -212.5t31.5 -249.5q0 -4 1 -34t3 -83q0 -59 17 -76q33 -29 65 -8q33 12 37 78q2 29 3 59.5t3 61.5q14 129 31 215q12 66 24.5 129t22.5 129q25 129 25 166q0 82 -46 129q-53 53 -124 53q-72 0 -123 -58q-39 -44 -39 -120zM137 127 q2 -57 44 -96t102 -37q57 2 97 44t40 101q0 57 -44 96t-104 37q-57 -2 -97 -44t-38 -101z" />
<glyph unicode="&#x22;" horiz-adv-x="565" d="M121 1255q0 -20 18 -157l49 -371h41l47 375q8 59 11.5 97t3.5 52q0 92 -39 117q-51 29 -90 4q-41 -25 -41 -117zM358 1260q0 -4 5.5 -44t15.5 -118l47 -371h41l47 375q8 59 11 96t3 51q0 94 -39 119q-51 31 -90 4q-41 -24 -41 -112z" />
<glyph unicode="#" horiz-adv-x="1613" d="M109 408h319l-168 -474h172l170 474h283l-168 -474h174l166 474h325l50 135h-326l106 295h326l49 135h-327l163 467h-170l-166 -467h-282l164 467h-174l-164 -467h-324l-47 -135h324l-107 -295h-323zM649 543l105 295h286l-108 -295h-283z" />
<glyph unicode="$" horiz-adv-x="782" d="M92 240q27 -55 230 -90q0 -123 6 -138q16 -29 55 -14q27 6 29 68v84h49v-84q0 -31 2 -41q2 -20 18 -27q12 -10 39 2q18 6 23 47v125q106 53 151 110.5t43 145.5q-2 86 -61 152q-41 45 -133 92v252q104 -33 123 -33q14 0 20 8q27 33 20.5 59.5t-77.5 55.5q-14 4 -36 11 t-50 15q0 133 -15 146q-18 23 -43 4q-18 -8 -22 -41q-2 -8 -2 -100h-51v51q0 25 -2 51q-4 31 -21 37q-20 8 -37 -2q-23 -16 -24 -53v-99q-182 -47 -187 -235q-2 -82 56 -140q25 -27 127 -90v-288q-121 45 -158 67q-10 6 -17 6q-10 0 -38 -47q-27 -44 -17 -67zM264 846 q0 53 62 88v-176q-62 33 -62 88zM412 252v283l49 -23v-260h-49zM412 721v237h49v-256zM543 276v191q39 -29 47 -35q18 -23 18 -55q1 -46 -65 -101z" />
<glyph unicode="%" horiz-adv-x="1150" d="M109 813q-10 -207 114 -295q45 -33 119 -33q168 0 217 213q10 47 10 93q0 160 -84 249q-76 78 -180 64q-57 -16 -69 -29q-117 -74 -127 -262zM223 799q0 193 78 245q41 16 74 -4q55 -33 69 -133q4 -29 6.5 -57.5t2.5 -61.5q0 -168 -58 -225q-33 -33 -69 -26q-45 8 -72 65 q-31 64 -31 197zM305 43q0 20 17 53l540 973q8 20 33 21q39 0 39 -43q0 -14 -10 -35l-541 -971q-18 -31 -47 -31q-31 0 -31 33zM670 322q-10 -207 116 -295q47 -29 117 -29q45 0 70 8q115 47 147 201q10 51 10 98q0 162 -81 244q-78 78 -181 63l-43 -14q-18 -6 -28 -14 q-117 -78 -127 -262zM784 307q0 131 33 195q14 29 47 51q37 14 72 -4q57 -33 72 -133q6 -53 6 -115q0 -172 -58 -229q-33 -33 -67 -27q-47 10 -74 66q-31 63 -31 196z" />
<glyph unicode="&#x26;" horiz-adv-x="1454" d="M106 406q0 -55 13 -113q49 -225 272 -293q78 -23 158 -23q242 0 424 152q172 -158 178 -235q4 -59 -39 -107q-57 -63 -74 -115q-14 -45 15.5 -76.5t81.5 -23.5q63 8 104 100q31 68 31 150q0 197 -172 459q100 188 100 385q0 47 -6 102q92 14 160 63q115 86 104 213 q-6 84 -76 121q-66 39 -123 11q-53 -29 -53 -72q0 -53 37 -74l55 -10q33 -6 45 -43q10 -33 -18.5 -65.5t-110.5 -37.5q49 2 23.5 3.5t-125.5 1.5l-43 4q-172 16 -229 -41q-43 -43 -33 -92q8 -47 51 -64q37 -12 64 6q10 6 41 41q14 18 43 15q39 -2 61 -48q10 -27 10 -63 q0 -115 -67 -234q-35 55 -209 242q-170 182 -199 229q78 76 119 117t45 47q63 74 74 158q10 86 -50 145q-68 70 -186 70q-193 0 -272 -162q-37 -74 -37 -159q0 -125 76 -265q-263 -200 -263 -419zM338 522q8 106 102 185q43 -59 228 -240q168 -168 194 -221 q-94 -53 -229 -53q-117 0 -182 53q-129 106 -113 276zM457 1178q0 111 102 127q53 10 88 -19q59 -47 37 -121q-20 -80 -152 -192q-75 119 -75 205z" />
<glyph unicode="'" horiz-adv-x="358" d="M137 1227q8 -18 19 -27q8 -8 32 -24q16 -10 32 -19.5t20 -28.5q8 -45 -76 -135q-10 -10 -8 -16t18 -2q113 45 164 186q16 49 16 88q0 47 -22 82q-35 47 -99 47q-66 0 -92 -57q-27 -47 -4 -94z" />
<glyph unicode="(" horiz-adv-x="655" d="M90 684q0 -377 252 -692q29 -35 59.5 -69t63.5 -64q90 -80 129 -72q16 10 16 23q0 10 -26 43q-172 211 -246 501q-39 150 -39 348q0 133 20 234q27 129 67 238.5t97 201.5q35 49 62.5 85t48.5 59q20 14 10 45q-6 20 -39 2q-123 -66 -243 -221q-129 -160 -180.5 -327 t-51.5 -335z" />
<glyph unicode=")" horiz-adv-x="655" d="M129 -190q0 -12 16 -23q39 -8 129 72q33 31 64 64.5t59 68.5q252 315 252 694q0 168 -51 335t-180 327q-123 154 -244 219q-33 18 -41 -2q-6 -27 12 -45q45 -53 73 -90t38 -54q53 -94 94 -202.5t70 -237.5q10 -51 16 -106.5t6 -118.5q0 -190 -43 -357q-74 -291 -245 -501 q-25 -31 -25 -43z" />
<glyph unicode="*" horiz-adv-x="1001" d="M188.5 1063q-10.5 -47 30.5 -92q33 -35 82 -27q35 6 82 66q68 86 139 137q-10 -61 -43 -143q-16 -41 -24.5 -67t-10.5 -34q-8 -57 27 -89t98 -21q66 16 66 84q0 16 -29 96q-33 82 -43 174q131 -125 172 -186q43 -35 94 -23q51 20 64 76q16 41 -19 82q-23 27 -98 37 q-106 16 -188 55q53 18 143 31q88 12 105 20q57 20 67 68q8 45 -31 94q-33 33 -84 22q-35 -10 -79 -67q-66 -84 -140 -137q4 61 37 143q35 88 37 100q6 57 -27 90q-43 33 -98 19q-68 -10 -67 -82q0 -18 28 -94q35 -84 43 -168q-129 129 -172 186q-47 37 -94 23 q-45 -18 -63 -74q-14 -43 20 -84q20 -29 98 -37q111 -16 191 -51q-53 -27 -144 -39q-96 -16 -104 -18q-55 -23 -65.5 -70z" />
<glyph unicode="+" horiz-adv-x="1544" d="M154 543h542v-543h254v543h535v258h-535v547h-254v-547h-542v-258z" />
<glyph unicode="," horiz-adv-x="358" d="M133 49q12 -27 49 -51q18 -8 33.5 -17.5t20.5 -29.5q6 -43 -78 -135q-8 -8 -6 -15q2 -8 16 -2q111 39 166 187q16 43 16 82q0 51 -24 86q-33 45 -99 45t-92 -56q-22 -45 -2 -94z" />
<glyph unicode="-" horiz-adv-x="724" d="M100 426q0 35 47 45q8 2 29 2h55h330q72 0 82 -2q47 -10 47 -45q0 -45 -127 -45h-336q-127 0 -127 45z" />
<glyph unicode="." horiz-adv-x="358" d="M137 98q0 -43 31 -72.5t74 -29.5t73.5 29.5t30.5 72.5t-30.5 74t-73.5 31t-74 -31t-31 -74z" />
<glyph unicode="/" horiz-adv-x="798" d="M100 74q0 12 6 22l539 973q14 25 49 25q33 0 62.5 -19.5t29.5 -44.5q0 -6 -4 -18l-540 -971q-16 -31 -58 -31q-31 0 -57.5 19.5t-26.5 44.5z" />
<glyph unicode="0" d="M102 641q-8 -152 35 -299q57 -188 199 -293q96 -66 244 -65q76 0 129 18q227 88 297 401q10 45 15 93.5t5 99.5q0 319 -168 494q-125 131 -309 131q-100 0 -191 -60q-123 -82 -194 -252q-52 -129 -62 -268zM334 602q0 410 158 494q37 16 71 16q35 0 72 -16 q111 -59 141 -275q8 -53 11.5 -110.5t3.5 -120.5q0 -342 -115 -457q-49 -49 -111 -49q-111 0 -171 128t-60 390z" />
<glyph unicode="1" d="M266 1118q-10 -27 6.5 -45t59.5 -18q16 -4 31.5 -6t31.5 -7q47 -29 47 -131v-700q0 -74 -41 -96q-4 -2 -23.5 -7.5t-53.5 -13.5q-41 -10 -41 -49q0 -35 39 -43q8 -2 73 -2h336q63 0 72 2q39 8 39 43q0 20 -11.5 32.5t-28 19.5t-38 11.5t-39.5 10.5q-41 23 -41 88l-2 948 q0 78 -45 78q-16 0 -33 -10q-86 -53 -141 -66q-16 -4 -52 -5t-94 -3q-39 0 -51 -31z" />
<glyph unicode="2" d="M201 82q4 -59 24 -72q8 -8 23 -8q14 0 28 8q41 31 68 40t76 9q51 0 143 -26l37 -10q84 -23 129 -23q74 0 127 49q68 63 68 234q0 29 -2 36q-8 49 -35 56q-8 2 -21 2q-20 0 -35 -27l-22 -45q-8 -16 -12 -20q-16 -25 -68 -29q-33 0 -88 20q-31 12 -92 9q-80 -6 -180 -70 q41 133 172 250l133 117q131 117 174 172q63 88 61 198q-6 154 -143 236q-82 47 -209 47q-119 0 -197 -39q-63 -31 -107 -87t-50 -112q-10 -84 53 -135q45 -41 111 -18q82 27 82 110q0 61 -64 101q39 82 125 82q31 0 61 -13q111 -47 111 -202q0 -145 -154 -289l-71 -68 q-266 -247 -256 -483z" />
<glyph unicode="3" d="M188 178q76 -197 332 -196q193 0 314 116q109 109 108 287q0 225 -244 317q180 123 181 275q0 55 -34 113.5t-87 91.5q-80 49 -185 49q-98 0 -174 -39q-135 -63 -147 -186q-10 -78 43 -121q53 -41 104 -23q76 27 76 103q0 53 -55 90q47 72 115 71q61 0 104 -44t43 -107 q0 -102 -111 -250h-67q-25 0 -33 -2q-133 -16 -172 -92q-16 -37 -2 -68q20 -39 63 -35q55 20 89 43q45 27 90 31q76 6 120 -49q59 -72 60 -197q0 -106 -43 -182q-51 -94 -152 -94q-51 0 -90 32.5t-51 92.5q-6 29 -9 51.5t-5 36.5q-23 49 -88 55q-51 2 -82 -37 q-42 -57 -11 -133z" />
<glyph unicode="4" d="M143 326q0 -23 17.5 -42.5t40.5 -23.5q25 -4 73 23q23 10 45.5 22t45.5 23q51 23 95 35t79 16v-168q0 -74 -41 -96q-4 -2 -23.5 -7.5t-54.5 -13.5q-41 -10 -41 -49q0 -35 39 -43q8 -2 74 -2h296q63 0 72 2q39 8 39 43q0 20 -11 32.5t-28.5 19.5t-38 11.5t-39.5 10.5 q-41 23 -41 88v153q10 -4 28.5 -17t45.5 -36q51 -45 92 -51q43 -8 68 39q25 33 2 84q-53 109 -236 133v276q0 119 -12 123q-16 10 -41 -24q-16 -23 -104 -154l-45 -67v-162q-59 -10 -119 -35t-119 -59l342 548q90 145 90 185q0 53 -88 53h-205q-82 0 -90 -14q-25 -25 4 -54 q18 -12 31.5 -20t24.5 -12q35 -18 52 -49t17 -66q0 -63 -102 -231l-164 -267q-70 -112 -70 -157z" />
<glyph unicode="5" d="M152 217q20 -141 165 -207q74 -33 177 -33q143 0 254 68q98 61 153 172q45 94 49 184q6 219 -137 324q-102 74 -229 74q-86 0 -187 -35l68 229q63 23 123 23q49 0 129 -22.5t106 -22.5q20 0 39 6q35 10 66 108q10 39 17 68t9 49q4 37 -20.5 52.5t-42.5 5.5 q-37 -29 -60 -58q-29 -25 -67 -24q-23 0 -74 10q-29 8 -47 11t-22 5q-88 14 -150 -4q-70 -23 -96 -78q-8 -12 -43 -125l-74 -241q-39 -123 -39 -150q0 -51 49 -51q25 0 72 47q27 20 45 33.5t31 17.5q43 18 94 19q49 0 84 -19q117 -61 117 -217q0 -217 -103 -313 q-57 -53 -135 -53q-12 0 -33 4q-39 10 -69 39q-43 35 -47 75q88 25 88 107q0 25 -9 41q-27 76 -114 76q-53 0 -94 -41q-59 -56 -43 -154z" />
<glyph unicode="6" d="M123 545q0 -147 49 -266q51 -127 152 -209q106 -86 239 -86q197 0 318 135q104 119 104 299q0 117 -57 200q-63 92 -172 115q-41 8 -90 8q-129 0 -205 -67q-23 -16 -37 -37q-6 -10 -6 -16q0 -14 11 -23.5t24 -5.5q100 37 141 37q45 0 92 -31q88 -63 88 -211v-20 q0 -10 -2 -21q-20 -180 -133 -235q-37 -16 -72 -17q-43 0 -75 19q-137 76 -138 440q0 127 35 266q51 199 154 258q51 29 98 29q61 0 96 -41q-43 -47 -43 -92q0 -29 17 -62q27 -55 104 -55q82 0 119 66q18 33 18 73q0 43 -20 82q-35 66 -115 103q-61 29 -137 32 q-262 6 -424 -223q-133 -186 -133 -444z" />
<glyph unicode="7" d="M236 922q0 -39 24 -48q41 -10 55 5q14 16 26.5 32.5t27.5 32.5q35 35 75 35q16 0 35 -6q90 -29 137 -29q63 0 175 45q-66 -141 -156 -246l-27 -30q-291 -334 -291 -535q0 -82 39 -135q43 -59 121 -59q55 0 94 26q59 47 60 127q0 25 -6 66l-7 33q-4 25 -7 49t-3 47 q0 152 137 344l70 98q133 188 133 334q0 39 -13 70.5t-44 35.5q-4 2 -78 -20q-80 -23 -135 -23q-23 0 -42.5 3.5t-39.5 7.5l-61 16q-90 25 -134 25q-47 0 -88 -35q-59 -53 -77 -266z" />
<glyph unicode="8" d="M184 295q2 -168 172 -266q82 -45 217 -45q117 0 195 36q184 94 195 289q2 113 -50 195q-47 74 -188 192l-27 23q98 70 144 123q55 66 59 147q2 111 -100 180q-72 47 -197 48q-94 0 -155 -25q-180 -74 -181 -266q0 -137 146 -264q-133 -109 -181 -179q-53 -79 -49 -188z M365 334q6 119 141 246q66 -49 113 -87t73 -67q96 -100 88 -184q-6 -72 -59 -119q-63 -51 -139 -51q-63 0 -111 32q-116 78 -106 230zM459 1008q10 74 82 102q27 12 61 12q47 0 82 -24q68 -47 59 -125q-10 -84 -131 -185q-165 126 -153 220z" />
<glyph unicode="9" d="M145 774q0 -117 58 -199q61 -90 172 -116q49 -12 96 -13q119 0 203 72q39 33 39 60t-23 26q-4 0 -12 -4q-70 -45 -125 -45q-57 0 -111 39q-86 57 -86 211v20q0 10 2 21q23 178 134 235q33 18 71 19q43 0 76 -21q137 -76 137 -440q0 -66 -9 -132.5t-26 -135.5 q-53 -197 -155 -258q-45 -27 -94 -27q-63 0 -99 41q43 45 43 92q0 27 -16 60q-35 59 -105 59q-57 0 -97 -45t-40 -103q0 -43 21 -77q33 -63 114 -101q63 -27 138 -30q256 -6 421 221q133 186 134 444q0 145 -48 264q-51 129 -151 211q-106 88 -240 88q-199 0 -317 -137 q-105 -121 -105 -299z" />
<glyph unicode=":" horiz-adv-x="358" d="M123 98q0 -43 30.5 -72.5t73.5 -29.5t74 29.5t31 72.5t-31 74t-74 31t-73.5 -31t-30.5 -74zM123 604q0 -43 30.5 -72.5t73.5 -29.5t74 29.5t31 72.5q0 45 -31 75t-74 30t-73.5 -30t-30.5 -75z" />
<glyph unicode=";" horiz-adv-x="358" d="M113 604q0 -43 29.5 -72.5t72.5 -29.5q45 0 74.5 29.5t29.5 72.5q0 45 -29.5 75t-74.5 30q-43 0 -72.5 -30t-29.5 -75zM119 49q8 -25 51 -51q16 -8 31.5 -17.5t19.5 -29.5q8 -41 -76 -135q-10 -8 -8 -15q2 -8 17 -2q115 43 165 187q16 43 17 86q0 49 -23 82 q-31 45 -98 45q-66 0 -92 -56q-24 -47 -4 -94z" />
<glyph unicode="&#x3c;" horiz-adv-x="1075" d="M98 561l971 -362v219l-743 262l743 260v219l-971 -360v-238z" />
<glyph unicode="=" horiz-adv-x="1892" d="M190 246h1614v256h-1614v-256zM190 842h1614v254h-1614v-254z" />
<glyph unicode="&#x3e;" horiz-adv-x="1075" d="M98 199l971 362v238l-971 360v-219l742 -260l-742 -262v-219z" />
<glyph unicode="?" horiz-adv-x="911" d="M100 1118q-8 -90 66 -149q59 -47 129 -21q86 33 86 117q0 55 -72 127q51 94 154 94q25 0 49 -6q131 -31 131 -186q0 -117 -108 -244l-76 -88q-43 -49 -68.5 -80t-34.5 -43q-49 -72 -49 -129q0 -59 40 -104.5t97 -45.5q45 0 74 33t29 78q0 12 -3 30.5t-6 39t-6.5 40 t-3.5 31.5q0 55 37 99q14 16 42 38.5t69 51.5l26 18q180 125 175 287q-10 164 -152 246q-84 47 -207 47q-147 0 -246 -56q-160 -88 -172 -225zM305 127q2 -57 44 -96t102 -37q57 2 97 44t38 101q-2 57 -44 96t-101.5 37t-98.5 -44t-37 -101z" />
<glyph unicode="@" horiz-adv-x="1935" d="M102 547q0 -127 32 -244t92.5 -217t148.5 -182t200 -137q184 -90 418 -91q401 0 760 230l-49 86q-352 -217 -698 -199q-186 10 -342 92q-190 96 -285 271q-82 150 -82 364q0 238 96 414q223 412 690 436q152 10 312 -43q211 -68 311 -209t100 -334q0 -141 -51 -264 q-88 -217 -229 -241q-74 -14 -107 20q-18 20 -18 66q0 53 45 206l131 463h-250l-37 -125q-74 174 -276 162q-117 -10 -221 -90q-111 -82 -175 -207q-74 -145 -73 -289q0 -115 49 -194q88 -147 270 -152q199 -2 322 197q20 -133 135 -178q45 -16 98 -17q150 0 269.5 93.5 t181.5 267.5q49 143 49 293q0 23 -1 42t-3 37q-29 201 -115 318q-47 63 -117.5 116.5t-169.5 94.5q-170 74 -393 74q-373 0 -628 -183q-390 -278 -390 -747zM809 410q2 45 17.5 111.5t47.5 156.5q80 219 175 252q20 8 65 4q43 -2 66 -23q57 -45 44.5 -147t-65.5 -248 q-70 -193 -160 -235q-66 -31 -122 0q-72 49 -68 129z" />
<glyph unicode="A" horiz-adv-x="1378" d="M82 45q0 -45 103 -45h18h207h82q37 4 47 23q8 20 0 45q-10 18 -25 20q-4 2 -12 2q-6 0 -19 2q-33 0 -55 25q-12 14 -12 36q0 19 8 44l57 182h408l20 -51q47 -119 47 -160q0 -55 -67 -76q-53 -16 -58 -20q-20 -20 -4 -47q14 -25 91 -25h278q176 4 188 12q8 8 9 23 q0 7 -2 16q-4 18 -17 29q-4 2 -11 5t-17 7q-86 33 -121 80q-4 8 -16.5 37t-30.5 80l-353 983q-33 94 -63 137q-23 35 -51 35q-27 0 -68 -29q-59 -41 -68 -43q-25 -12 -53 -23.5t-52 -22.5t-41 -22.5t-19 -21.5q-8 -25 10 -43q14 -16 39 -14q23 2 33 3l10 1q45 -6 65 -33 q14 -14 47 -80l-307 -819q-59 -154 -108 -186q-23 -16 -76 -25q-41 -4 -41 -41zM530 512l156 418l156 -418h-312z" />
<glyph unicode="B" horiz-adv-x="1183" d="M98 45q0 -35 39 -43q8 -2 74 -2h506q262 0 389 182q63 94 63 226q0 74 -22 137q-41 106 -117 157q-63 41 -170 66q150 70 203 174q29 57 29 123q0 86 -41 158q-55 98 -158 129q-59 20 -184 20h-498q-66 0 -74 -2q-39 -8 -39 -43q0 -39 41 -49q35 -8 54.5 -13t23.5 -8 q41 -23 41 -96v-950q0 -74 -41 -96q-4 -2 -23.5 -7.5t-54.5 -13.5q-41 -10 -41 -49zM500 381v268q78 41 159 41q74 0 127 -35q120 -75 120 -244q0 -16 -1 -32q-4 -72 -37 -141q-41 -84 -106 -119q-35 -20 -82 -21q-53 0 -105 29q-55 33 -71 119q-2 14 -3 48t-1 87zM500 766 v512q70 0 110.5 -1t55.5 -3q88 -14 135 -74.5t47 -152.5q0 -37 -10 -72q-31 -90 -115 -137q-29 -16 -71 -30.5t-99 -29.5z" />
<glyph unicode="C" horiz-adv-x="1220" d="M104 680q0 -272 140 -467q94 -135 264 -197q119 -43 237 -43h11q291 8 440 205q14 19 14 36q0 13 -8 26q-16 35 -49 4q-45 -39 -141 -70q-49 -17 -129 -17q-16 0 -33 1q-264 8 -412 264q-90 158 -90 377q0 168 58 282q113 223 331 224q166 0 275 -160q106 -156 121 -166 q29 -18 53 16q8 10 8 29q0 14 -47 168l-57 180q-29 86 -58 101q-12 7 -22 6q-17 0 -29 -19q-12 -20 -8 -49q4 -16 7 -34.5t7 -35.5q-133 72 -262 72q-27 0 -52.5 -3t-54.5 -7q-332 -66 -456 -399q-58 -148 -58 -324z" />
<glyph unicode="D" horiz-adv-x="1294" d="M98 45q0 -35 39 -43q8 -2 74 -2h448q174 0 285 43q156 59 248 216t92 392q0 240 -94 402q-109 188 -281 262q-129 57 -342 57h-356q-66 0 -74 -2q-39 -8 -39 -43q0 -39 41 -49q35 -8 54.5 -13t23.5 -8q41 -23 41 -96v-950q0 -74 -41 -96q-4 -2 -23.5 -7.5t-54.5 -13.5 q-41 -10 -41 -49zM500 401v856q143 0 229 -32q109 -41 182 -146q100 -137 101 -428q0 -162 -33 -258q-84 -244 -246 -295q-25 -8 -59 -8q-66 0 -112 35t-58 127q-2 16 -3 53t-1 96z" />
<glyph unicode="E" horiz-adv-x="1079" d="M98 45q0 -35 39 -43q8 -2 74 -2h516q76 0 119 -1t53 -3q31 -10 33 -64q3 -30 31 -30q6 0 14 2q31 6 51 63q8 29 16.5 58.5t18.5 58.5l27 88q33 104 32 133q0 23 -17.5 37t-37.5 6q-51 -51 -80 -96q-47 -66 -98 -98q-90 -61 -191 -62q-53 0 -98 23q-74 41 -92 143 q-4 20 -6 61t-2 101v260h170q57 -4 92 -25q16 -10 35.5 -29.5t42.5 -47.5q47 -57 53 -60q29 -10 49 14q10 10 10 31q0 14 -45 156l-18 59q-45 147 -78 164q-29 12 -47 -10q-10 -10 -10 -25q0 -6 3 -22.5t3 -24.5q0 -20 -8 -31q-23 -37 -164 -36h-88v469q29 2 52 3t44 1 q203 0 291 -107q25 -31 35 -49t16 -29.5t13 -18.5t26 -13q29 -4 43 20q6 8 6 27q0 39 -31 125l-73 202q-16 50 -48 51q-8 0 -18 -4q-23 -10 -25 -36q0 -39 -13 -50.5t-58 -11.5h-549q-66 0 -74 -2q-39 -8 -39 -43q0 -39 41 -49q35 -8 54.5 -13t23.5 -8q41 -23 41 -96v-950 q0 -74 -41 -96q-4 -2 -23.5 -7.5t-54.5 -13.5q-41 -10 -41 -49z" />
<glyph unicode="F" horiz-adv-x="987" d="M98 45q0 -35 39 -43q8 -2 74 -2h336q63 0 71 2q39 8 39 43q0 39 -41 49q-70 14 -75 19q-41 25 -41 98v469h170q57 -4 92 -25q16 -10 35.5 -29.5t42.5 -47.5q47 -57 53 -60q29 -10 49 14q10 10 10 31q0 14 -45 156l-18 59q-45 147 -78 164q-29 12 -47 -10q-10 -10 -10 -25 q0 -6 3 -22.5t3 -24.5q0 -20 -8 -31q-23 -37 -164 -36h-88v469q29 2 52 3t44 1q203 0 291 -107q25 -29 35 -49l16 -33q6 -12 13 -19t26 -9q31 0 43 20q6 8 6 27q0 41 -31 125l-73 202q-16 47 -66 47q-23 -10 -25 -36q0 -39 -13 -50.5t-58 -11.5h-549q-66 0 -74 -2 q-39 -8 -39 -43q0 -39 41 -49q35 -8 54.5 -13t23.5 -8q41 -23 41 -96v-950q0 -74 -41 -96q-4 -2 -23.5 -7.5t-54.5 -13.5q-41 -10 -41 -49z" />
<glyph unicode="G" horiz-adv-x="1370" d="M100 621q0 -82 13 -146q27 -166 125 -295q100 -131 251 -180q70 -25 158 -25q227 0 391 140q35 -35 66 -69t59 -62q11 -9 24 -9q11 0 23 7q16 10 17 94v362q0 49 30 72q14 12 60 18q45 10 53 21q11 12 11 28q0 11 -5 23q-10 27 -37 29q-10 2 -100 2h-252 q-170 0 -184.5 -14.5t-14.5 -38.5q0 -33 62 -52q94 -29 98 -30q39 -14 58 -66q14 -31 14 -74q0 -70 -39 -120q-72 -101 -208 -101h-21q-190 8 -314 227q-88 156 -88 381q0 207 76 347q102 186 281 200l32 2q169 0 289 -159q14 -20 26.5 -41t24.5 -43q47 -70 62 -72 q23 -6 47 18q8 8 8 33q0 31 -41 164l-59 184q-29 84 -58 90q-10 3 -17 4q-16 0 -28 -14q-10 -10 -10 -35q0 -31 21 -92q-20 0 -51 18.5t-48 24.5q-92 39 -196 39q-186 0 -344 -131q-141 -115 -207 -311q-58 -160 -58 -348z" />
<glyph unicode="H" horiz-adv-x="1409" d="M98 45q0 -35 39 -43q8 -2 74 -2h336q63 0 71 2q39 8 39 43q0 39 -41 49q-72 16 -77 19q-41 25 -41 98q2 168 2 281v176h508v-457q0 -74 -41 -96q-4 -2 -23.5 -7.5t-54.5 -13.5q-41 -10 -41 -49q0 -35 39 -43q8 -2 71 -2h338q63 0 72 2q37 8 37 43q0 39 -41 49 q-72 16 -78 19q-41 25 -41 98v950q0 74 41 96q4 2 23.5 7.5t54.5 13.5q41 10 41 49q0 33 -37 43q-8 2 -72 2h-338q-63 0 -71 -2q-39 -8 -39 -43q0 -39 41 -49q35 -8 54.5 -13t23.5 -8q41 -23 41 -96q2 -131 2 -221v-137h-510l-2 358q0 74 41 96q6 6 77 21q41 10 41 49 q0 35 -39 43q-8 2 -71 2h-336q-66 0 -74 -2q-39 -8 -39 -43q0 -39 41 -49q35 -8 54.5 -13t23.5 -8q41 -23 41 -96v-950q0 -74 -41 -96q-4 -2 -23.5 -7.5t-54.5 -13.5q-41 -10 -41 -49z" />
<glyph unicode="I" horiz-adv-x="659" d="M98 45q0 -35 39 -43q8 -2 74 -2h336q63 0 71 2q39 8 39 43q0 39 -41 49q-72 16 -77 19q-41 25 -41 98v950q0 74 41 96q4 2 23.5 7.5t53.5 13.5q41 10 41 49q0 35 -39 43q-8 2 -71 2h-336q-66 0 -74 -2q-39 -8 -39 -43q0 -39 41 -49q35 -8 54.5 -13t23.5 -8q41 -23 41 -96 v-950q0 -74 -41 -96q-4 -2 -23.5 -7.5t-54.5 -13.5q-41 -10 -41 -49z" />
<glyph unicode="J" horiz-adv-x="659" d="M-62 -143q0 -60 58 -97q33 -23 88 -22q98 0 180 45q150 80 201 221q35 98 35 268l-2 889q0 74 41 96q6 6 77 21q41 10 41 49q0 35 -39 43q-8 2 -71 2h-336q-66 0 -74 -2q-39 -8 -39 -43q0 -39 41 -49q35 -8 54.5 -13t23.5 -8q41 -23 41 -96v-1091v-76q0 -29 -2 -39 q-6 -63 -31 -78q-10 -7 -23 -6q-28 0 -73 29q-76 51 -104 51q-31 0 -58 -27q-29 -28 -29 -67z" />
<glyph unicode="K" horiz-adv-x="1257" d="M98 45q0 -35 39 -43q8 -2 74 -2h336q63 0 71 2q39 8 39 43q0 39 -41 49q-70 14 -75 19q-41 25 -41 98v440q20 -41 67 -43q80 -4 129 -24q127 -55 127 -287v-123q0 -100 11 -127q18 -47 98 -47h262q78 0 78 45q0 35 -47 45q-70 16 -86 35q-20 27 -43 89t-45 165l-17 72 q-43 188 -135 249q-73 49 -242 50h-14q41 135 123 217q59 63 178 118q104 51 213 101q47 25 47 43q0 8 -6 18q-20 39 -36.5 73t-33.5 62q-14 20 -36 21q-16 0 -54 -14q-203 -76 -358 -285q-127 -170 -180 -356v413q0 74 41 96q4 4 75 21q41 10 41 49q0 35 -39 43q-8 2 -71 2 h-336q-66 0 -74 -2q-39 -8 -39 -43q0 -39 41 -49q35 -8 54.5 -13t23.5 -8q41 -23 41 -96v-950q0 -74 -41 -96q-4 -2 -23.5 -7.5t-54.5 -13.5q-41 -10 -41 -49z" />
<glyph unicode="L" horiz-adv-x="1071" d="M98 45q0 -35 39 -43q8 -2 74 -2h516q76 0 119 -1t53 -3q31 -10 33 -64q3 -30 31 -30q6 0 14 2q31 6 51 63q8 29 16.5 58.5t18.5 58.5l27 88q33 104 32 133q0 23 -17.5 37t-37.5 6q-51 -51 -80 -96q-47 -66 -98 -98q-90 -61 -191 -62q-53 0 -98 23q-74 41 -92 137 q-4 20 -6 62t-2 106l-2 741q0 74 41 96q6 6 77 21q41 10 41 49q0 35 -39 43q-8 2 -71 2h-336q-66 0 -74 -2q-39 -8 -39 -43q0 -39 41 -49q35 -8 54.5 -13t23.5 -8q41 -23 41 -96v-950q0 -74 -41 -96q-4 -2 -23.5 -7.5t-54.5 -13.5q-41 -10 -41 -49z" />
<glyph unicode="M" horiz-adv-x="1734" d="M139 2q8 -2 72 -2h248q63 0 69 2q39 8 39 43q0 43 -82 57.5t-82 73.5q0 8 1.5 16.5t3.5 18.5l174 754q94 -201 159 -422q14 -47 25.5 -91t21.5 -90q6 -16 25 -102q10 -53 31 -65q25 -14 51 0q12 6 21.5 23.5t17.5 42t14 53t13 55.5q100 399 225 579l153 -737q6 -25 7 -45 q0 -53 -46 -68q-20 -2 -39.5 -4t-41.5 -6q-41 -6 -41 -43q0 -35 39 -43q8 -2 73 -2h338q61 0 70 2q39 8 39 43v4q0 33 -33 43q-68 16 -70 19q-43 25 -57 100l-176 926q27 12 55 12q45 0 92 -41q10 -14 22.5 -26.5t24.5 -26.5q18 -18 43 -19q45 0 56 47q2 20 -49 136 q-16 33 -31 63.5t-31 60.5q-23 59 -117 60q-270 0 -540 -647q-51 117 -85 192.5t-55 114.5q-94 184 -192 271t-184 87q-29 0 -56 -16q-25 -18 -82 -135q-45 -92 -55 -121q-11 -22 -11 -38.5t11 -29.5q23 -16 45 -8q16 4 26.5 16.5t20.5 26.5q37 49 74 49q41 0 80 -45 l-205 -909q-14 -74 -59 -98l-18 -4q-17 -4 -52 -15q-31 -9 -31 -41q0 -42 41 -51z" />
<glyph unicode="N" horiz-adv-x="1378" d="M28 1085q0 -30 38 -30q16 0 24 8l25 29q12 14 22 28q37 43 74 43q35 0 82 -37v-915q0 -74 -41 -96q-4 -2 -23.5 -7.5t-54.5 -13.5q-41 -10 -41 -49q0 -35 39 -43q8 -2 72 -2h258q61 0 69 2q39 8 39 43q0 39 -41 49q-72 16 -77 19q-41 23 -41 98v801q72 -41 156.5 -137.5 t189.5 -245.5q215 -317 233 -506q4 -41 6 -63.5t4 -26.5q8 -33 41 -33h78q43 0 49 27q4 20 4 143v991q0 74 41 99q6 2 78 18q41 10 41 49q0 35 -39 43q-8 2 -71 2h-256q-66 0 -74 -2q-39 -8 -39 -43q0 -39 41 -49q37 -8 56.5 -13t23.5 -8q41 -23 41 -96v-446 q-203 344 -449 532q-205 158 -372 158h-13q-82 -2 -125 -86q-10 -18 -37 -111q-31 -108 -31 -123z" />
<glyph unicode="O" horiz-adv-x="1583" d="M102 735q0 -152 58 -299q82 -217 284 -348q193 -121 418 -121q129 0 248 41q211 76 336 268q121 188 121 412q0 135 -47 264q-80 217 -274.5 344t-420.5 127q-127 0 -237 -39q-233 -78 -359 -251q-127 -177 -127 -398zM365 811q0 172 71 299q80 135 230 178q61 16 116 17 q168 0 303 -142q119 -125 177 -317q45 -141 45 -289q0 -377 -279 -453q-72 -18 -133 -18q-178 0 -311 139q-121 125 -183 334q-36 125 -36 252z" />
<glyph unicode="P" horiz-adv-x="1169" d="M98 45q0 -35 39 -43q8 -2 74 -2h336q63 0 71 2q39 8 39 43q0 39 -41 49q-70 14 -75 19q-41 25 -41 98q0 121 18 158q25 45 86 67q14 6 111 25l41 8q272 55 356 244q37 82 37 194q0 164 -74 279q-84 125 -215 166q-68 20 -235 20h-414q-66 0 -74 -2q-39 -8 -39 -43 q0 -39 41 -49q35 -8 54.5 -13t23.5 -8q41 -23 41 -96v-950q0 -74 -41 -96q-4 -2 -23.5 -7.5t-54.5 -13.5q-41 -10 -41 -49zM500 504v770q248 0 334 -127q72 -109 71 -242q0 -82 -31 -143q-39 -76 -106 -119q-16 -10 -60 -27.5t-116 -44.5q-67 -28 -92 -67z" />
<glyph unicode="Q" horiz-adv-x="1583" d="M106 684q0 -147 46 -264q66 -170 215 -293q141 -117 290 -143q-80 -111 -120 -148q-2 -2 -26 -24.5t-71 -69.5q-52 -50 -51 -78q0 -21 12.5 -34.5t30.5 -16.5q14 -2 51 10q51 18 54 19q49 12 104 12q106 0 205 -31l65 -20q135 -41 211 -41q82 0 129 39q27 20 84 145 q51 106 56 127q6 33 -33 41q-6 2 -17 2q-18 0 -51 -39q-76 -88 -157 -88q-6 0 -162 35l-35 8q-84 20 -155 20q-44 0 -83 -8l99 121h31q130 0 227 31q356 115 469 465q37 113 37 231q0 240 -148 441q-215 287 -583 287q-18 0 -35 -1q-166 -6 -316 -88q-162 -88 -260 -241 q-113 -170 -113 -406zM350 801q0 272 158 401q111 92 272 92q66 0 113 -18q324 -121 405 -561q8 -41 12.5 -80t4.5 -76q0 -227 -154 -364q-102 -90 -272 -105q127 223 127 387q0 96 -39 172q-41 86 -123 96q-29 2 -51.5 -7t-37.5 -28.5t-20.5 -46t5.5 -57.5q25 -41 46 -74.5 t40 -56.5q29 -54 28 -124q0 -115 -102 -242q-362 139 -408 622q-2 16 -3 34t-1 36z" />
<glyph unicode="R" horiz-adv-x="1236" d="M98 45q0 -35 39 -43q8 -2 74 -2h336q63 0 71 2q39 8 39 43q0 39 -41 49q-70 14 -75 19q-41 25 -41 98v1049q39 6 84 6q109 0 174 -37q74 -41 114 -142q29 -75 29 -144q0 -199 -149 -277q-33 -12 -58.5 -20.5t-42.5 -12.5q-96 -29 -96 -82q0 -39 104 -180l76 -103 q72 -96 90 -135q14 -25 17 -41q2 -20 3 -33.5t1 -23.5q4 -31 43 -33q6 -2 104 -2h148h78q31 2 41 27q4 12 3 21q0 20 -18 30q-10 6 -76 28q-41 14 -73 62q-35 47 -66 86t-55 72l-166 229q223 78 305 205q47 72 47 194q0 100 -31 172q-104 246 -415 246h-504q-66 0 -74 -2 q-39 -8 -39 -43q0 -39 41 -49q35 -8 54.5 -13t23.5 -8q41 -23 41 -96v-950q0 -74 -41 -96q-4 -2 -23.5 -7.5t-54.5 -13.5q-41 -10 -41 -49z" />
<glyph unicode="S" horiz-adv-x="1005" d="M86 246q23 -164 195 -238q94 -37 206 -37q174 0 299 84q200 139 200 382q0 19 -1 38q-10 156 -86 246q-66 76 -250 172l-78 41q-201 106 -223 203q-3 15 -3 29q0 48 36 87q48 48 122 48q18 0 38 -3q84 -12 137 -63q43 -39 115 -156q27 -45 51 -49q8 -2 14 -1q35 0 35 46 q0 25 -43 164l-39 123l-23 72q-14 33 -36 39q-5 2 -11 1q-16 0 -34 -14q-9 -11 -9.5 -37t9.5 -67q-129 59 -220 59q-92 0 -182 -51q-78 -43 -123 -129q-41 -78 -41 -156q0 -123 68 -198q49 -55 194 -140l115 -65q152 -88 203 -144q71 -73 71 -169q0 -12 -1 -25 q-14 -180 -187 -236q-43 -14 -88 -14q-121 0 -203 107q70 39 70 116q0 53 -39 94t-94 41t-100 -34q-66 -55 -66 -136q0 -14 2 -30z" />
<glyph unicode="T" horiz-adv-x="1071" d="M53 1100q0 -45 40 -46q3 0 7 1q27 0 41 24l29 49q29 41 57.5 70t57.5 43q43 20 139 21v-1051q0 -74 -41 -96q-4 -2 -23.5 -7.5t-54.5 -13.5q-41 -10 -41 -49q0 -35 39 -43q8 -2 74 -2h336q63 0 71 2q39 8 39 43q0 39 -41 49q-72 16 -77 19q-41 25 -41 98v1051q57 0 92 -1 t45 -4q59 -8 82 -59q10 -41 15 -72.5t7 -54.5q8 -37 49 -20q23 4 41 59l54 154q41 119 41 157q0 31 -21 45q-8 7 -17 7q-10 0 -22 -9q-2 -2 -29 -53q-20 -39 -55 -39h-622q-68 0 -76 49q-10 49 -45 49q-31 0 -49 -32q-4 -6 -19 -56l-47 -147q-35 -110 -35 -135z" />
<glyph unicode="U" horiz-adv-x="1306" d="M98 1327q0 -39 41 -49q35 -8 54.5 -13t23.5 -8q41 -23 41 -96v-749q0 -147 29 -222q43 -106 168 -176q102 -57 250 -57q143 0 241 55q123 68 170 187q31 76 31 213v749q0 74 41 96q4 2 23.5 7.5t54.5 13.5q41 10 41 49q0 35 -39 43q-8 2 -70 2h-252q-66 0 -74 -2 q-39 -8 -38 -43q0 -39 40 -49q35 -8 54.5 -13t23.5 -8q41 -23 41 -96v-690q0 -125 -14 -180q-29 -106 -109 -154q-57 -35 -127 -35q-72 0 -125 33q-90 53 -110 146q-8 35 -8 168v712q0 74 41 96q4 4 75 21q41 10 41 49q0 35 -39 43q-8 2 -71 2h-336q-66 0 -74 -2 q-39 -8 -39 -43z" />
<glyph unicode="V" horiz-adv-x="1320" d="M37 1161q8 -18 18 -26q7 -5 19 -5q20 0 55 13q31 10 49 10q74 0 139 -102q20 -31 53 -98.5t81 -174.5q106 -238 184 -590q8 -39 14 -75.5t15 -75.5q8 -37 34 -37h140q29 0 36 20q10 35 21.5 70t22.5 70l333 979q39 115 39 149q0 80 -106 86h-80q-37 0 -70 -2 q-13 -1 -24 -1q-82 0 -109 38q-4 8 -6 16.5t-6 16.5q-12 23 -37 26q-2 0 -3 1q-32 0 -52 -37q-20 -57 -37 -109.5t-33 -99.5q-6 -16 -6 -29q0 -37 70 -37h149q84 0 113 -31q8 -8 8 -28q0 -31 -31 -119l-201 -576q-41 154 -77.5 268.5t-69.5 196.5q-45 113 -84 196t-72 136 q-94 162 -196 205q-16 6 -31 6q-35 0 -76 -33q-39 -31 -180 -184q-8 -8 -8 -20q0 -6 2 -13z" />
<glyph unicode="W" horiz-adv-x="1890" d="M53 1200q0 -21 25 -35q18 -10 55 6q27 8 57 -2q94 -33 179 -194q29 -53 61.5 -132t71.5 -186q41 -158 69.5 -282.5t49.5 -222.5q16 -63 23 -97.5t9 -38.5q10 -16 56 -16h79q47 0 56 20q2 4 12 43t29 111q51 205 95 351.5t81 238.5q14 -41 23.5 -67.5t13.5 -39.5 q41 -158 69.5 -282.5t49.5 -222.5q16 -66 23 -99l7 -33q8 -20 39 -20h100q37 0 44 12q10 27 18 53.5t18 55.5l383 1112q12 39 13 63q0 76 -158 76h-150q-80 0 -94 43q-12 45 -37 51q-7 2 -13 2q-23 0 -36 -24q-47 -123 -80 -227q-4 -16 -4 -23q0 -37 51 -37h220q68 0 67 -51 q0 -18 -10 -53l-113 -334l-96 -305q-86 332 -141 479q-33 86 -68 160.5t-74 144.5q-125 223 -223 223q-31 0 -78 -39q-172 -133 -176 -176q-4 -25 25 -41q18 -10 55 6q27 8 57 -2q100 -39 195 -223l-170 -528q-70 309 -139 475q-219 528 -365 528q-31 0 -78 -39 q-93 -72 -134.5 -114t-41.5 -68z" />
<glyph unicode="X" horiz-adv-x="1374" d="M96 55q-1 -3 -1 -6q0 -9 7 -24q10 -20 27 -23q6 -2 59 -2h304q61 0 77.5 19.5t1.5 41.5q-35 25 -53 31q-55 27 -55 72q0 53 88 190l137 217l133 -233q86 -152 86 -188q0 -43 -37 -56q-53 -16 -61 -24q-20 -27 -6 -47q16 -23 86 -23h387q82 0 92 16q11 18 11 33q0 8 -3 14 q-8 27 -45 33q-63 12 -71 19q-47 20 -82 80l-324 567l201 309q88 135 149 174q20 8 39 15.5t39 15.5q28 13 28 38q0 9 -3 19q-12 33 -50 37q-8 2 -141 2h-123h-92q-39 -4 -55.5 -27.5t-1.5 -44.5q8 -14 22.5 -19t28.5 -9q39 -27 48 -39t9 -31q0 -43 -98 -198l-70 -111 l-184 311q-61 104 -63 107q-53 74 -97 80h-6q-71 0 -237 -170q-37 -39 -31 -64q2 -18 29 -35q14 -6 28 0q14 8 29 15q29 12 53 10q47 -2 101 -78q16 -25 65 -115l133 -245l-246 -408q-29 -45 -52 -82t-44 -65q-29 -41 -67 -60q-25 -8 -45.5 -12t-35 -10.5t-18.5 -16.5z" />
<glyph unicode="Y" horiz-adv-x="1210" d="M45 1159q2 -45 51 -45q8 0 23.5 5t31 11.5t31 11.5t25.5 5q20 0 35 -8q106 -51 215 -242q94 -166 127 -319v-367q0 -74 -41 -96q-4 -2 -23.5 -7.5t-54.5 -13.5q-41 -10 -41 -49q0 -35 39 -43q8 -2 74 -2h335q63 0 72 2q39 8 39 43q0 39 -41 49q-72 16 -78 19 q-41 25 -41 98v414l355 616q20 33 20 64q0 68 -115 67h-161q-66 0 -76 47q-8 47 -37 51q-3 0 -5 1q-35 0 -50 -27q-23 -59 -43.5 -115.5t-36.5 -109.5q-8 -16 -8 -31q0 -31 57 -31h164q68 0 67 -20q0 -14 -43 -88l-159 -281q-16 41 -34 84t-34 84q-66 160 -162 285 q-125 162 -248 174h-8q-53 0 -104 -72q-10 -6 -62 -74q-59 -74 -55 -90z" />
<glyph unicode="Z" horiz-adv-x="1013" d="M100 90q0 -66 76 -84q27 -6 127 -6h424q51 0 68 -16q4 -8 10 -41t46 -33h5q20 0 35 27q0 6 20 55l64 176q41 119 41 135q0 49 -51 51q-23 0 -49.5 -31.5t-51.5 -62.5q-129 -145 -352 -145q-29 0 -65.5 3t-81.5 7l532 971q84 152 84 188q0 23 -10 39q-23 39 -78 47 q-10 2 -37 2h-72h-348q-68 0 -76 49q-10 49 -45 49q-31 0 -49 -32q-4 -4 -18 -56l-49 -147q-33 -92 -33 -133q0 -18 6 -27q10 -25 41 -20q25 0 39 24l29 49q61 86 116 113q43 20 140 21h170l-529 -975q-78 -146 -78 -197z" />
<glyph unicode="[" horiz-adv-x="583" d="M98 -397h482v65h-261v1718h261v60h-482v-1843z" />
<glyph unicode="\" horiz-adv-x="663" d="M92 813q0 -49 68 -49h98v-987q0 -61 -27 -101q-16 -23 -61 -61q-29 -23 -2 -51q23 -29 57 -8l316 168q39 18 41 43q4 35 -14.5 45t-45.5 2q-61 -18 -61 69v1315q0 184 45 217q47 37 98 17q20 -8 72 -58q55 -49 79.5 -55t48 2t39 23.5t23.5 37t2 45.5q-16 70 -123 109 q-53 18 -110 18q-117 0 -211 -71q-102 -80 -141 -234q-25 -104 -25 -280v-107h-100q-66 0 -66 -49z" />
<glyph unicode="]" horiz-adv-x="583" d="M98 -332v-65h482v1843h-482v-60h260v-1718h-260z" />
<glyph unicode="^" horiz-adv-x="565" d="M121 967q0 -12 18 -13q14 0 33 7l158 53l155 -51q16 -4 25 -5q27 0 27 17q0 12 -25 31q-82 55 -131 81q-33 20 -51 21q-20 0 -84 -43q-27 -16 -52.5 -34.5t-50.5 -35.5q-22 -16 -22 -28z" />
<glyph unicode="_" horiz-adv-x="1095" d="M180 -203v-78h1190v78h-1190z" />
<glyph unicode="`" horiz-adv-x="407" d="M109 1153q-10 -29 34 -61l183 -138q16 -10 28 -10q25 0 25 23q0 14 -19 37q-53 63 -88.5 102t-52.5 55q-41 39 -67 37q-35 -4 -43 -45z" />
<glyph unicode="a" horiz-adv-x="1042" d="M127 236q-1 -14 -1 -28q0 -129 122 -198q63 -33 139 -33q152 0 322 132q0 -133 18 -142q4 -3 13 -2q26 0 89 21q14 4 39 8t60 8q16 2 34.5 3t36.5 3q31 4 45 25q7 10 7.5 19.5t-7.5 19.5q-6 12 -34 18q-41 10 -58 21q-35 20 -45 61q-2 10 -2 109v251q0 113 -12 162 q-20 98 -102 158q-70 51 -199 51q-133 0 -227 -43q-172 -78 -185 -158q-2 -10 -2 -18q0 -41 39 -70q20 -16 46 -16q16 0 34 6q33 12 68 53q14 16 26 33t27 33q51 57 123 76q25 7 47 7q51 0 88 -36q36 -35 36 -77q0 -13 -3 -27q-18 -72 -113 -117q-25 -12 -141 -49l-66 -21 q-127 -41 -184 -88q-70 -55 -78 -155zM340 252q2 68 76 108q25 14 157 60l31 14q63 23 107 64q0 -150 -9 -191q-25 -117 -114 -172q-47 -29 -107 -29q-47 0 -82 23q-60 39 -60 109q0 7 1 14z" />
<glyph unicode="b" horiz-adv-x="1136" d="M139 1352q-1 -7 -1 -14q0 -20 16 -29q20 -12 43 -6q6 2 18 2q43 0 43 -70v-995q0 -49 -6 -91.5t-12.5 -73t-12.5 -46.5l-6 -17q0 -35 45 -28q41 18 56 32q37 25 53 25q37 0 135 -35q76 -27 139 -31q12 -1 25 0q75 0 160 31q113 45 180 129q119 143 119 338q0 63 -17 125 q-53 203 -239 276q-61 25 -127 25q-131 0 -289 -96v538q0 59 26 99q8 10 23.5 26.5t38.5 36.5q10 10 10 25q2 14 -8 24q-14 17 -32 18q-12 0 -25 -7l-316 -168q-37 -20 -39 -43zM461 401v265q113 94 209 94q39 0 75 -17q150 -70 175 -270q2 -12 3 -25.5t1 -29.5 q0 -219 -136 -305q-49 -31 -126 -31q-57 0 -97 20q-78 43 -96 127q-8 33 -8 172z" />
<glyph unicode="c" horiz-adv-x="868" d="M98 408q0 -102 43 -191q121 -244 379 -244q203 0 316 125q23 33 25.5 42.5t2.5 15.5q0 31 -30 30q-14 0 -31 -10q-55 -27 -100.5 -46t-90.5 -19q-86 0 -168 65q-144 119 -143 340v25q8 168 127 219q31 14 74 14q57 0 108 -35q43 -37 85 -73q36 -32 76 -32q7 0 13 1 q55 10 74 53q8 20 8 39q0 29 -18 57q-35 55 -127 82q-37 10 -76 17q-29 5 -59 4h-21q-258 -2 -397 -230q-70 -112 -70 -249z" />
<glyph unicode="d" horiz-adv-x="1136" d="M98 377q23 -276 248 -381q51 -25 117 -25q152 0 301 107q0 -109 12 -117q14 -10 33 -10q23 0 82 24q94 25 135 25q66 0 74 2q37 8 37 43q0 39 -41 49q-74 14 -80 19q-41 25 -41 98v1130q0 88 88 162q25 20 2 49q-14 17 -32 18q-12 0 -25 -7l-316 -168q-37 -20 -39 -43 q-6 -31 14.5 -43.5t43.5 -5.5q6 2 18 2q43 0 43 -70v-399q-109 61 -219 61q-131 0 -240 -76q-217 -149 -216 -400q-1 -21 1 -44zM295 461q0 168 98 264q76 72 164 72q27 0 57 -6q78 -14 158 -66v-303q0 -119 -6 -150q-18 -82 -92 -131q-53 -35 -109 -35q-43 0 -82 19 q-145 66 -180 248q-8 39 -8 88z" />
<glyph unicode="e" horiz-adv-x="862" d="M98 362q25 -262 252 -362q74 -33 162 -33q137 0 262 84q74 51 84 107q1 5 1 10q0 23 -25 27q-14 0 -68 -29q-33 -18 -55.5 -29.5t-32.5 -15.5q-68 -23 -117 -23q-78 0 -135 52q-60 54 -60 110q0 5 1 10q6 57 71 95q31 18 123 49l80 26q109 37 143 60q68 45 68 129 q0 88 -55 153q-90 104 -262 105h-29q-14 0 -29 -2q-94 -8 -186 -76q-104 -78 -158 -223q-37 -95 -37 -184q0 -20 2 -40zM303 512q0 141 54 208q51 63 136 63q5 0 11 -1q74 -2 125 -75q25 -35 24 -68q0 -20 -8 -37q-20 -47 -90 -82q-29 -10 -56.5 -22.5t-56.5 -22.5l-34 -14 q-37 -16 -93 -68q-12 51 -12 119z" />
<glyph unicode="f" horiz-adv-x="663" d="M92 813q0 -49 68 -49h98v-987q0 -61 -27 -101q-16 -23 -61 -61q-29 -23 -2 -51q13 -17 30 -17q12 0 27 9l316 168q39 18 41 43q4 35 -14.5 45t-45.5 2q-11 -3 -19 -4q-42 0 -42 73v881h112q33 0 68 -4t41 -4q12 0 21.5 10t14.5 23.5t7 27.5t-2 25q-8 16 -49 20h-131h-82 v336q0 184 45 217q30 24 62 24q18 0 36 -7q20 -8 72 -58q55 -49 79.5 -55t48 2t39 23.5t23.5 36.5q5 12 5 26q0 10 -3 20q-16 70 -123 109q-53 18 -110 18q-117 0 -211 -71q-102 -80 -141 -234q-25 -104 -25 -280v-107h-100q-66 0 -66 -49z" />
<glyph unicode="g" horiz-adv-x="935" d="M102 530q12 -109 68 -174q49 -59 166 -110q-51 -59 -83 -97t-42 -55q-32 -45 -32 -78q0 -13 5 -24q18 -43 92 -51q1 -1 10 -1q15 0 56 3q68 6 100 6q55 0 72 -12q25 -23 10 -52q-23 -27 -43 -46t-41 -34q-59 -49 -78 -90q-12 -29 -12 -59q0 -49 23 -84q37 -54 96 -54 q6 0 12 1q39 2 71 25.5t32 60.5q0 18 -23 63q-20 39 -20 66q0 37 37 73q20 20 137 84q92 49 116 103q12 25 11.5 49.5t-17 43.5t-50.5 31.5t-87 12.5q-25 0 -53.5 -3t-26.5 -3l-49 -6q-36 -4 -63 -4q-38 0 -58 8q-35 12 -35 42q0 11 5 23q8 31 32 45q45 -5 85 -4q48 0 87 7 q215 35 293 194q31 59 31 127v16q-4 80 -33 136q-100 186 -348 190q0 125 18 150q24 33 73 33q18 0 38 -5q10 -2 20 -2q38 0 66 33q15 20 16 43q0 11 -4 23q-20 70 -104 69q-70 0 -121 -39q-102 -74 -102 -305q-133 -23 -213 -82q-74 -53 -113 -139q-28 -65 -28 -121 q-1 -14 1 -27zM297 598q0 59 20 102q43 96 160 109q15 2 29 2q101 0 170 -102q37 -53 51 -127q8 -34 8 -67q0 -55 -22 -103q-49 -98 -170 -99q-127 0 -205 127q-41 72 -41 158z" />
<glyph unicode="h" horiz-adv-x="1181" d="M102 45q0 -20 11.5 -29.5t28 -12.5t36.5 -3h37h293h35q20 0 36.5 3t27.5 12.5t11 29.5q0 25 -11 35t-29.5 14t-38 6t-38 12.5t-29.5 33t-11 65.5v293q0 31 2 60.5t11 56t30.5 50t60.5 44.5q41 23 89 23h5q45 0 80 -19q39 -20 58.5 -54t26.5 -72t7 -79v-74v-229 q0 -43 -11 -65.5t-28.5 -32t-38 -12.5t-38 -7t-28.5 -14t-11 -35q0 -20 11 -29.5t27.5 -12.5t37.5 -3h36h293h35q20 0 36.5 3t28 12.5t11.5 29.5q0 25 -11.5 35t-29.5 14t-37.5 6t-38 12.5t-30 33t-11.5 65.5v373q0 39 -7 80t-24.5 77.5t-49 68.5t-81.5 54q-67 31 -140 32 q-32 0 -64 -6q-109 -19 -207 -122v573q0 66 26.5 99t61.5 63q10 8 11 23.5t-9 25.5q-12 16 -29 17q-16 0 -28 -6l-316 -168q-20 -10 -28.5 -22.5t-10.5 -20.5q-4 -16 2 -28.5t13 -16.5q16 -8 27.5 -7.5t15.5 3.5q8 2 18 3t19.5 -5.5t16.5 -21.5t7 -44v-1024q0 -43 -11 -65.5 t-28.5 -32t-38 -12.5t-38 -7t-29 -14t-11.5 -35z" />
<glyph unicode="i" horiz-adv-x="618" d="M98 45q0 -35 39 -43q8 -2 74 -2h299q66 0 74 2q39 8 39 43q0 39 -41 49q-74 14 -80 19q-41 23 -41 98v569q0 31 6 67t6 42q0 27 -22 39q-20 8 -45 0q-66 -37 -136 -39q-16 -2 -38.5 -1t-53.5 3h-6q-62 0 -61 -43q0 -45 59 -55q45 -6 61 -19q27 -20 27 -72v-491 q0 -74 -41 -98q-6 -2 -78 -19q-41 -10 -41 -49zM211 1182q0 -55 38 -92t91 -37q55 0 93 38.5t38 92.5q0 55 -38 92t-93 37q-53 0 -91 -37t-38 -94z" />
<glyph unicode="j" horiz-adv-x="618" d="M-8 -328q10 -59 78 -86q31 -10 59 -10q74 0 150 57q182 135 182 463v684q0 31 6 67t6 42q0 27 -22 39q-20 8 -45 0q-66 -37 -136 -39q-16 -2 -38.5 -1t-53.5 3h-6q-62 0 -61 -43q0 -45 59 -55q45 -6 61 -19q27 -20 27 -72v-808q0 -147 -16.5 -164t-40.5 -9 q-16 14 -26.5 25.5t-14.5 22.5q-20 27 -64 26q-53 0 -83 -33q-23 -26 -23 -66q0 -12 2 -24zM211 1182q0 -55 38 -92t91 -37q55 0 93 38.5t38 92.5q0 55 -38 92t-93 37q-53 0 -91 -37t-38 -94z" />
<glyph unicode="k" horiz-adv-x="1079" d="M102 45q0 -35 37 -43q8 -2 72 -2h301q63 0 70 2q37 8 36 43q0 39 -40 49q-70 14 -76 19q-41 25 -41 98v188l41 -47q45 -53 90 -104t90 -105q147 -154 229 -157h7q92 0 172 106q9 15 8 28q0 11 -6 21q-10 12 -25 13q-6 0 -26.5 -5.5t-32.5 -5.5q-68 0 -197 140 q-47 51 -86 100t-72 98q157 110 231.5 187.5t74.5 138.5q0 38 -29 49q-18 8 -43 8h-197q-45 0 -47 -39q-4 -35 35 -41q59 -16 59 -63q0 -63 -276 -256v895q0 59 26 98q8 10 23.5 26.5t38.5 37.5q10 10 10 24q2 14 -8 25q-14 17 -32 17q-12 0 -25 -7l-316 -168 q-37 -20 -39 -43q-6 -31 15 -45q12 -4 43 -4q6 2 18 2q43 0 43 -70v-1042q0 -74 -41 -96q-6 -6 -74 -21q-41 -10 -41 -49z" />
<glyph unicode="l" horiz-adv-x="618" d="M102 45q0 -35 39 -43q8 -2 74 -2h293q63 0 72 2q39 8 38 43q0 39 -40 49q-70 14 -76 19q-41 25 -41 98v1130q0 59 26 99q8 10 23.5 26.5t38.5 36.5q10 10 10 25q2 14 -8 24q-14 17 -32 18q-12 0 -25 -7l-316 -168q-37 -20 -39 -43q-6 -31 14.5 -43.5t43.5 -5.5q6 2 18 2 q43 0 43 -70v-1024q0 -74 -41 -96q-6 -6 -74 -21q-41 -10 -41 -49z" />
<glyph unicode="m" horiz-adv-x="1699" d="M111 45q0 -20 11 -29.5t27.5 -12.5t34.5 -3h37h277h34q20 0 37 3t27 12.5t10 29.5q0 37 -22.5 43t-50 12t-50 25.5t-22.5 85.5v235v84q0 41 8 80t29.5 72t62.5 57q37 23 84 23q49 0 80 -19q37 -23 54.5 -51t23.5 -61t6 -68v-67v-285q0 -68 -18.5 -87.5t-40 -24.5t-39 -10 t-17.5 -44q0 -20 11.5 -29.5t28 -12.5t36.5 -3h37h215h39q20 0 35.5 3t26 12.5t10.5 29.5q0 37 -18.5 41t-41 8t-41 25.5t-18.5 91.5v264v88q0 39 6 70t23.5 55.5t52.5 44.5q41 25 90 28h15q39 0 65 -13q37 -20 55 -52t25.5 -71t7.5 -80v-80v-254q0 -47 -10.5 -69.5 t-24.5 -33t-32.5 -11.5t-33 -4t-24.5 -13t-10 -35q0 -20 11 -29.5t27.5 -12.5t36.5 -3h37h242q43 0 76.5 3t33.5 42q0 35 -19 40t-44 10t-44.5 26.5t-19.5 89.5v405q0 84 -33.5 152t-129.5 109q-53 21 -110 21q-43 0 -88 -12q-105 -28 -210 -130q-37 51 -63.5 76.5 t-63.5 44.5q-43 20 -92 21h-7q-46 0 -94 -13q-52 -14 -104.5 -42t-99.5 -65q0 59 9 89t-7 51q-14 16 -33 16q-11 0 -24 -6q-18 -10 -57.5 -23.5t-78.5 -15.5q-29 -2 -49 -1t-43 3q-33 2 -50 -10.5t-17 -32.5q0 -29 15 -40t44 -15q16 -2 32.5 -5.5t29 -12.5t19.5 -26.5 t7 -46.5v-491q0 -66 -23.5 -85.5t-51 -24.5t-50 -12t-22.5 -44z" />
<glyph unicode="n" horiz-adv-x="1155" d="M111 45q0 -20 11 -29.5t27.5 -12.5t34.5 -3h37h277h34q20 0 37 3t27 12.5t10 29.5q0 37 -22.5 43t-50 12t-50 25.5t-22.5 85.5v235v86q0 43 9 81t29.5 70t61.5 56q35 22 81 22h4q48 -1 79 -18q35 -18 52.5 -46.5t24.5 -62.5t7 -71v-67v-285q0 -68 -18.5 -87.5t-40 -24.5 t-39 -10t-17.5 -44q0 -20 11.5 -29.5t28 -12.5t36.5 -3h37h215h39q20 0 35.5 3t26 12.5t10.5 29.5q0 37 -18.5 41t-41 9t-41 26.5t-18.5 89.5v401q0 92 -31 160t-125 105q-46 18 -97 18q-46 0 -96 -14q-108 -31 -204 -103q0 59 9 89t-7 51q-14 16 -33 16q-11 0 -24 -6 q-18 -10 -57.5 -23.5t-78.5 -15.5q-29 -2 -49 -1t-43 3q-33 2 -50 -10.5t-17 -32.5q0 -29 15 -40t44 -15q16 -2 32.5 -5.5t29 -12.5t19.5 -26.5t7 -46.5v-491q0 -66 -23.5 -85.5t-51 -24.5t-50 -12t-22.5 -44z" />
<glyph unicode="o" horiz-adv-x="1064" d="M98 422q4 -188 135 -318q137 -137 361 -137q199 0 336 133q133 133 133 332q0 209 -139 336q-133 125 -351 125q-207 0 -344 -137q-131 -131 -131 -322v-12zM309 512q0 203 150 254q37 12 76 12q88 0 163 -63q82 -70 125 -193q29 -86 29 -170q0 -205 -141 -262 q-43 -18 -88 -18q-88 0 -165 65.5t-114 175.5q-35 105 -35 199z" />
<glyph unicode="p" horiz-adv-x="1122" d="M98 -377q0 -35 39 -43q8 -2 74 -2h301q63 0 72 2q39 8 39 43q0 39 -41 49q-74 14 -80 19q-41 23 -41 96v258q113 -63 231 -63q117 0 219 65q113 76 172 221q41 100 41 197q0 20 -2 41q-20 264 -235 360q-59 25 -123 25q-150 0 -303 -111q0 31 6 67t6 42q0 27 -22 39 q-10 4 -21.5 4t-23.5 -4q-66 -37 -136 -39q-16 -2 -38.5 -1t-53.5 3h-6q-62 0 -61 -43q0 -45 59 -55q45 -6 61 -19q27 -20 27 -72v-915q0 -74 -41 -96q-2 -2 -78 -19q-41 -10 -41 -49zM461 403v277q94 76 201 76q78 0 135 -41q136 -101 135 -294q0 -26 -2 -52 q-14 -188 -160 -260q-49 -23 -96 -23q-59 0 -105 31q-80 51 -100 133q-8 30 -8 153z" />
<glyph unicode="q" horiz-adv-x="1114" d="M311 14q82 -41 162 -41q117 0 285 97l2 -283q0 -74 -41 -96q-2 -2 -78 -19q-41 -10 -41 -49q0 -35 39 -43q8 -2 72 -2h303q61 0 69 2q39 8 39 43q0 39 -41 49q-72 16 -77 19q-41 23 -41 96v852q0 80 12 158q4 35 7 52t3 19q-4 16 -16 19q-18 4 -35 -10q-53 -39 -76 -48 q-13 -4 -29 -4q-22 0 -51 9q-201 59 -260 59q-102 0 -199 -64q-113 -72 -169 -208q-47 -112 -48 -217q0 -276 209 -390zM297 424q-1 16 -1 31q0 68 21 133q33 104 113 162q59 41 113 41q98 0 164 -66q45 -59 53 -84v-416q-35 -51 -74 -71q-59 -35 -121 -35q-55 0 -100 24 q-154 78 -168 281z" />
<glyph unicode="r" horiz-adv-x="819" d="M98 45q0 -35 39 -43q8 -2 74 -2h301q63 0 72 2q39 8 39 43q0 39 -41 49q-74 14 -80 19q-41 25 -41 98v358q27 55 78 102.5t96 55.5q10 2 20 2q40 0 70 -35l6 -11l19 -34q14 -27 36 -26q43 0 43 43v135q0 84 -81 92q-8 1 -16 1q-125 0 -271 -187v73q0 31 6 67t6 42 q0 27 -22 39q-10 4 -21.5 4t-23.5 -4q-66 -37 -136 -39q-16 -2 -38.5 -1t-53.5 3h-6q-62 0 -61 -43q0 -45 59 -55q45 -6 61 -19q27 -20 27 -72v-491q0 -74 -41 -96q-4 -2 -23.5 -7.5t-54.5 -13.5q-41 -10 -41 -49z" />
<glyph unicode="s" horiz-adv-x="747" d="M51 178q6 -35 26.5 -69.5t56.5 -58t74 -39t72.5 -23.5t57.5 -8q13 -1 27 -1q27 0 57 3q45 4 90 19t86 42t74 70q41 51 55 112q7 29 7 56q0 31 -9 59q-16 53 -43 87t-61.5 55.5t-75.5 34.5l-82 26l-41 12q-59 16 -103.5 35.5t-60.5 66.5q-5 14 -5 28q0 26 17 54 q23 35 52.5 50.5t58.5 17.5h12q27 0 52 -7q32 -9 57 -38q10 -12 17 -30.5t13 -43.5q4 -10 3.5 -28.5t-0.5 -41.5q0 -12 7 -15t17 -7q23 -6 34 3t25 36q2 4 17.5 32.5t33 63.5t33 63.5t15.5 32.5q4 16 7 24.5t-9 22.5q-10 12 -22 15q-6 1 -11 1t-10 -1q-10 -4 -18 -11 l-11 -12q-16 -25 -39.5 -23.5t-40.5 7.5l-41 16q-58 22 -128 22q-16 0 -33 -1q-89 -6 -156 -66q-59 -51 -81 -113q-15 -42 -15 -84q0 -19 4 -38q10 -55 31.5 -88t53 -53.5t72.5 -35t90 -32.5l35 -12q41 -14 72 -25.5t52.5 -25t33.5 -35t12 -60.5q0 -36 -20 -72 q-23 -39 -66 -59q-39 -19 -78 -19q-21 0 -42 6q-60 15 -107 68q18 31 21 44.5t8 27.5q6 29 -3.5 48.5t-25.5 35.5q-20 18 -49 24.5t-57.5 0t-52 -27t-34.5 -46.5q-10 -26 -10 -51q0 -11 2 -21z" />
<glyph unicode="t" horiz-adv-x="622" d="M98 45q0 -35 39 -43q8 -2 74 -2h301q63 0 72 2q39 8 39 43q0 39 -41 49q-74 14 -80 19q-41 25 -41 98v555h57q35 0 73 -5t44 -5q25 0 31 32q3 14 2 27q0 16 -4 29q-8 16 -41 20h-136h-26v51q0 158 -17 179q-11 14 -27 13q-8 0 -18 -3q-16 -2 -39 -39q-8 -10 -14 -22.5 t-14 -24.5q-41 -47 -82 -72.5t-82 -50.5q-57 -33 -64.5 -51.5t-3.5 -38.5q6 -25 19 -33q8 -6 53 -10t59 -21q27 -27 27 -102v-428q0 -74 -41 -96q-4 -2 -23.5 -7.5t-54.5 -13.5q-41 -10 -41 -49z" />
<glyph unicode="u" horiz-adv-x="1171" d="M111 848q0 -45 59 -55q45 -6 61 -19q27 -20 27 -72v-364q0 -152 14 -195q29 -98 138 -147q55 -27 125 -27q137 0 274 109q0 -109 12 -117q14 -10 31 -10q25 0 84 24q94 25 135 25q63 0 72 2q37 8 37 43q0 39 -41 49q-72 16 -78 19q-41 25 -41 98v569q0 31 6 67t6 42 q0 27 -22 39q-10 4 -21.5 4t-23.5 -4q-66 -37 -136 -39q-16 -2 -38.5 -1t-53.5 3h-6q-64 0 -63 -43q0 -45 59 -55q47 -6 66 -19q29 -23 28 -72v-309q0 -127 -8 -151q-16 -59 -92 -105q-47 -29 -94 -28q-45 0 -80 20q-61 35 -80 125q-6 37 -6 147v379q0 31 6 67t6 42 q0 27 -22 39q-10 4 -21.5 4t-23.5 -4q-66 -37 -136 -39q-16 -2 -38.5 -1t-53.5 3h-6q-61 0 -61 -43z" />
<glyph unicode="v" horiz-adv-x="1015" d="M86 819q0 -41 27.5 -49t58.5 -18q45 -25 72 -99l205 -520q35 -78 53 -114.5t37 -43.5q12 -4 65 -4q45 0 58 4q18 8 36 56q14 39 24.5 66.5t16.5 43.5l236 617q8 23 37 69q20 33 20 47q0 10 -8 19q-13 16 -32 16q-12 0 -25 -6q-37 -16 -68 -26.5t-55 -12.5q-18 -2 -41 -1 t-51 3q-8 1 -15 1q-53 0 -53 -44q0 -18 10.5 -30.5t26.5 -19.5t34.5 -11t35.5 -8q37 -16 36 -56q0 -18 -8 -36l-178 -467l-184 467q-14 31 -15 57q0 29 47 45q45 16 46 52q0 36 -39 44q-8 2 -25.5 3t-46.5 1h-227q-51 0 -72 -4q-39 -8 -39 -41z" />
<glyph unicode="w" horiz-adv-x="1449" d="M88 819q0 -41 27.5 -49t58.5 -18q45 -25 72 -99l205 -520q16 -39 28.5 -67.5t22.5 -49.5q20 -37 26 -41q8 -4 54 -4q25 0 38 1t21 7.5t13 17.5t12 34l129 389q156 -397 159 -406q16 -35 23 -39q12 -4 57 -4t56 6q12 6 30 54q16 43 26.5 70.5t14.5 39.5l242 615 q8 23 37 69q20 33 20 47q0 10 -8 19q-13 16 -32 16q-12 0 -25 -6q-37 -16 -68 -26.5t-57 -12.5q-16 -2 -38 -1t-48 3q-8 1 -14 1q-53 0 -54 -44q0 -43 60 -53q80 -12 79 -66q0 -16 -10 -40l-170 -406l-149 399q-14 35 -15 58q0 31 41 49t41 57q0 31 -37 41q-8 2 -25.5 3 t-45.5 1h-117q-51 0 -72 -4q-39 -8 -39 -41q0 -39 50 -59q49 -18 49 -58q0 -29 -15 -65l-129 -365l-153 390q-14 31 -15 57q0 29 48 45q45 16 45 52t-39 44q-8 2 -25.5 3t-46.5 1h-227q-29 0 -46.5 -1t-25.5 -3q-39 -8 -39 -41z" />
<glyph unicode="x" horiz-adv-x="1019" d="M94 45q4 -35 41 -43q8 -2 76 -2h133q63 0 72 2q39 8 39 43q0 31 -41 43q-39 14 -39 35q0 23 35 76q70 100 79 116l33 43l37 -53q96 -136 97 -175q0 -29 -33 -36q-29 -6 -37 -24q-10 -29 7 -49.5t97 -20.5h244q70 0 86 29q7 12 7 22q0 14 -13 23q-8 12 -58 24 q-47 16 -67 47l-201 316l174 258q37 55 74 67l43 7q20 14 14 47q-12 25 -51 24h-227q-51 0 -64 -14q-29 -31 0 -47q23 -8 48.5 -16.5t25.5 -30.5q0 -18 -12 -39l-90 -154l-107 162q-106 162 -147 168q-4 1 -8 1q-38 0 -101 -52l-108 -86q-35 -25 -25 -49q4 -23 27 -33 q4 -2 51 14q6 2 18 10q16 8 35 9q31 0 51 -33l144 -213l-183 -258q-45 -63 -96 -92q-16 -6 -30.5 -12.5t-28.5 -10.5q-21 -8 -21 -43z" />
<glyph unicode="y" horiz-adv-x="1032" d="M98 819q0 -35 8 -35q2 0 9.5 2t15.5 2q51 0 125 -135l207 -381q63 -117 80 -141q-31 -66 -52.5 -113t-35.5 -77q-92 -203 -93 -283q0 -98 84 -117q18 -4 34 -4q39 0 62 26q32 36 36 93q-2 -16 -3 10v90v27q0 168 121 403l293 572q0 4 39 67q16 33 16 47q0 12 -8 21 q-13 16 -31 16q-12 0 -26 -6q-37 -16 -67.5 -26.5t-55.5 -12.5q-18 -2 -40.5 -1t-49.5 3q-8 1 -15 1q-55 0 -55 -44q0 -51 60 -55q72 -6 71 -47q0 -18 -14 -45l-168 -324l-176 310q-10 37 -10 55q0 35 45 49q43 14 43 50t-39 44q-8 2 -24.5 3t-45.5 1h-227q-53 0 -74 -4 q-39 -8 -39 -41z" />
<glyph unicode="z" horiz-adv-x="786" d="M109 51q12 -41 61 -49q10 -2 104 -2h175h104q20 -2 31 -29q17 -49 50 -49h5q37 4 51 49q47 127 70 193q25 72 25 79q0 40 -44 40q-25 0 -39 -25t-26 -43q-53 -86 -135 -109q-18 -4 -68.5 -6t-136.5 -4l354 506q16 23 32.5 46.5t33.5 45.5q37 57 37 92q0 78 -170 78h-267 q-16 0 -30 33q-14 31 -39 35h-3q-25 0 -48 -43q-18 -53 -37 -103.5t-37 -97.5q-5 -15 -5 -26q0 -24 23 -33q27 -10 49 12q14 16 24.5 28.5t16.5 20.5q49 51 95 64q38 11 89 10q47 0 105 -8l-346 -492q-106 -150 -106 -202q0 -6 2 -11z" />
<glyph unicode="{" horiz-adv-x="964" d="M98 483q197 -29 264 -90q82 -76 82 -264v-143q0 -154 21 -215q35 -111 156.5 -181.5t339.5 -70.5v82q-197 23 -267 114q-57 78 -57 267v84q0 276 -129 372q-96 76 -311 97q250 47 329 114q106 88 107 322v145q0 113 16 168q27 88 119 139q20 10 41.5 18.5t48.5 16.5 q6 2 96 25v80q-317 -23 -430 -148q-57 -66 -71 -143q-8 -39 -9 -156v-164q0 -111 -10 -151q-23 -86 -102 -139q-74 -53 -234 -74v-105z" />
<glyph unicode="|" horiz-adv-x="311" d="M160 -203h98v1845h-98v-1845z" />
<glyph unicode="}" horiz-adv-x="964" d="M92 -399v-82q219 0 340 70.5t156 181.5q20 61 20 215v143q0 188 82 264q68 61 264 90v105q-158 23 -231 74q-84 59 -105 139q-4 20 -7 57t-3 94v164q0 57 -2 96t-6 60q-16 82 -72 143q-115 125 -430 148v-80q70 -16 117 -30.5t72 -29.5q88 -49 116 -139q16 -55 17 -168 v-145q0 -231 108 -322q80 -68 328 -114q-215 -25 -311 -97q-127 -96 -127 -372v-84q0 -188 -58 -267q-69 -91 -268 -114z" />
<glyph unicode="~" horiz-adv-x="606" d="M117 956q6 -8 16 -2q49 25 86 25q18 0 64 -10q63 -18 92 -25q10 -2 20.5 -3t20.5 -1q80 0 164 74q6 6 6 16q-4 10 -13 10q-4 0 -32.5 -15t-57.5 -15t-59 12l-27 10q-53 20 -106 21q-102 0 -170 -78q-8 -9 -4 -19z" />
<glyph unicode="&#xa1;" horiz-adv-x="475" d="M117 174q0 -80 48 -130t122 -50q70 0 123 55q39 45 39 121q0 47 -29 178q-23 98 -40.5 213t-31.5 250v33q0 31 -2 84q-2 59 -18 76q-33 29 -66 8q-31 -12 -37 -76l-6 -123q-8 -63 -14 -116.5t-15 -98.5q-14 -66 -26 -129t-25 -129q-10 -66 -16 -107t-6 -59zM145 1251 q0 -57 44 -96t104 -37q57 2 97 45t38 101q-2 59 -44 98t-101 37q-57 -2 -97.5 -45.5t-40.5 -102.5z" />
<glyph unicode="&#xa2;" horiz-adv-x="894" d="M94 604q0 -104 43 -190q106 -217 328 -244h10v-170q0 -61 39 -61t39 61v168q176 10 278 127q27 31 28 41t1 16q0 31 -31 31q-14 0 -30 -10q-35 -20 -58.5 -33.5t-40.5 -17.5q-78 -25 -147 -9v645q25 0 53 -24q43 -37 86 -73t88 -32q51 0 74 56q18 47 -10 94 q-68 102 -291 102v138q0 57 -37 57q-39 0 -39 -62v-139q-197 -35 -313 -223q-70 -113 -70 -248zM297 735q0 164 127 219q31 14 51 15v-623q-178 119 -178 389z" />
<glyph unicode="&#xa3;" horiz-adv-x="905" d="M121 33q6 -23 37 -31q12 -2 98 27q70 16 92 16q76 8 187 -16l45 -11q88 -18 127 -18q57 0 96 39q18 23 45 108q14 39 21 68l12 45q4 18 -7.5 27.5t-27.5 7.5q-20 -4 -58 -35q-37 -33 -53 -39t-37 -6q-18 0 -60 8t-67 10q-70 4 -159 -28q33 39 55 69.5t33 57.5 q27 63 24 168h113q49 2 61.5 5t20.5 21q14 27 0 49q-12 23 -57 25q-14 2 -50 2h-92q-8 39 -15 69.5t-13 53.5q-37 160 -37 205q0 106 63 157q39 33 86 33q51 0 113 -43q-59 -61 -49 -108q12 -61 75.5 -82t108.5 24q55 53 37 131q-35 129 -189 172q-47 12 -98 13 q-143 0 -233 -90q-115 -119 -115 -291q0 -102 39 -244h-80q-66 0 -80 -24q-18 -31 0 -56q23 -23 182 -22q8 -47 12.5 -73t4.5 -30q6 -66 -37 -143q-47 -92 -141 -162q-41 -32 -33 -59z" />
<glyph unicode="&#xa4;" horiz-adv-x="1015" d="M59 352l84 -84l35 35q92 -104 363 -151q90 51 147 84l86 49l53 28l45 -45l80 82l-41 43q43 141 43 279q0 199 -80 327l80 80l-84 84l-75 -78q-133 111 -310 129q-51 -37 -109.5 -76.5t-123.5 -84.5l-109 108l-82 -82l93 -92l-74 -49q-20 -121 -21 -256q0 -164 52 -279z M276 756q0 137 33 262q8 2 23 2h37q178 0 270 -115q84 -109 84 -287q0 -121 -43 -311q-84 10 -121 21q-283 82 -283 428z" />
<glyph unicode="&#xa5;" horiz-adv-x="1357" d="M41 1329q25 -98 25 -184q0 -16 -3.5 -35.5t-7.5 -46.5q8 -6 16.5 -13.5t16.5 -15.5q86 121 219 121q117 0 182 -117q23 -45 38.5 -100t19.5 -125l-344 -4q2 -6 2 -27q-2 -10 -2 -20t-2 -21h346v-147h-320q2 -6 2 -33q0 -31 -2 -37h320v-211q0 -10 2 -12 q10 -182 -123 -260q10 -16 18.5 -27.5t12.5 -19.5q47 8 99 12t108 4q98 0 188 -18l17.5 24.5t11.5 18.5q-94 70 -119 145q-6 27 -6 137v207h319q-2 6 -2 29q2 10 2 20t2 21h-323v145h344q-2 4 -2 27q0 10 6 45h-346q12 115 57 186q94 154 252 154q106 0 162 -102 q12 6 23.5 11t21.5 9q-2 10 -2 27v39q0 111 49 206q-102 37 -166 37q-195 0 -348 -172q-90 -102 -123 -254q-12 86 -25 125q-39 131 -155 219q-113 88 -250 88q-94 0 -211 -55z" />
<glyph unicode="&#xa6;" horiz-adv-x="1024" d="M395 313v-649h236v649h-236zM395 664h236v702h-236v-702z" />
<glyph unicode="&#xa7;" horiz-adv-x="735" d="M74 188q-8 -68 41 -119t129 -61q45 -6 86 -6q174 0 248 113q45 66 45 141q0 43 -15.5 81t-41 68.5t-61.5 51t-77 26.5q172 57 172 248q0 158 -113 215q-244 59 -243 246q0 94 52 156.5t138 60.5q125 -4 148 -92h-27q-51 0 -57 -64q-8 -82 71 -82q74 0 84 84 q12 100 -80 150q-68 37 -178 37q-121 0 -205 -66q-88 -70 -88 -190q0 -160 168 -223q-166 -53 -166 -238q0 -152 121 -219q279 -82 258 -293q-8 -80 -61 -130t-131 -50q-45 0 -94 20q-31 12 -54 72h29q49 0 57 63q4 35 -17.5 59.5t-55.5 24.5q-72 0 -82 -84zM209 707 q0 78 39 135q43 68 114 67q61 0 97 -65q27 -51 26 -121q0 -74 -34 -127q-41 -61 -113 -55q-129 8 -129 166z" />
<glyph unicode="&#xa8;" horiz-adv-x="571" d="M129 1026q0 -33 21.5 -56.5t54.5 -23.5t56.5 22.5t23.5 55.5t-21.5 55.5t-54.5 22.5t-56.5 -21.5t-23.5 -54.5zM408 1026q0 -33 21.5 -56.5t53.5 -23.5q33 0 56.5 22.5t23.5 55.5t-21.5 55.5t-54.5 22.5t-56 -21.5t-23 -54.5z" />
<glyph unicode="&#xa9;" horiz-adv-x="1589" d="M88 682q0 -297 205 -499.5t504 -202.5q293 0 497 204q207 207 207 498t-205 498q-203 211 -491 211q-184 0 -330 -76q-90 -47 -161.5 -113.5t-122 -147.5t-77 -176.5t-26.5 -195.5zM203 682q0 244 170 424q172 180 415 180q246 0 422 -176t176 -428q0 -248 -172 -426 q-172 -176 -419 -176q-248 0 -420 176q-172 178 -172 426zM418 694q0 -141 43 -223q57 -121 172 -166q88 -35 235 -35l93 4q27 35 57.5 75t68.5 87l-20 21q-18 -10 -25 -17q-37 -25 -141 -24q-334 0 -334 291q0 37 6.5 87t16.5 115q88 43 217 43q104 0 244 -55 q-2 66 -3 102.5t-1 47.5v26q-111 37 -232 37q-92 0 -178 -29q-63 -92 -116.5 -153.5t-94.5 -96.5v-18q-4 -25 -6 -54.5t-2 -64.5z" />
<glyph unicode="&#xaa;" horiz-adv-x="1042" d="M127 236q-1 -14 -1 -28q0 -129 122 -198q63 -33 139 -33q152 0 322 132q0 -133 18 -142q4 -3 13 -2q26 0 89 21q14 4 39 8t60 8q16 2 34.5 3t36.5 3q31 4 45 25q7 10 7.5 19.5t-7.5 19.5q-6 12 -34 18q-41 10 -58 21q-35 20 -45 61q-2 10 -2 109v251q0 113 -12 162 q-20 98 -102 158q-70 51 -199 51q-133 0 -227 -43q-172 -78 -185 -158q-2 -10 -2 -18q0 -41 39 -70q20 -16 46 -16q16 0 34 6q33 12 68 53q14 16 26 33t27 33q51 57 123 76q25 7 47 7q51 0 88 -36q36 -35 36 -77q0 -13 -3 -27q-18 -72 -113 -117q-25 -12 -141 -49l-66 -21 q-127 -41 -184 -88q-70 -55 -78 -155zM340 252q2 68 76 108q25 14 157 60l31 14q63 23 107 64q0 -150 -9 -191q-25 -117 -114 -172q-47 -29 -107 -29q-47 0 -82 23q-60 39 -60 109q0 7 1 14z" />
<glyph unicode="&#xab;" horiz-adv-x="485" d="M106 453q0 -27 21 -66q16 -29 32.5 -58.5t33.5 -58.5l45 -84q14 -27 34 -26q31 0 17 51l-80 248l82 233q8 18 8 35q0 27 -18 27q-25 0 -45 -39l-43 -80q-87 -164 -87 -182zM258 453q0 -25 23 -66l67 -117l47 -84q16 -29 35 -28q31 0 14 53l-79 248l81 233q8 18 9 37 q0 25 -17 25q-25 0 -45 -39l-45 -80q-90 -157 -90 -182z" />
<glyph unicode="&#xac;" horiz-adv-x="931" d="M115 1167q-20 -12 2 -53l645 -1114q16 -27 24 -29q6 -2 21 6l76 41q23 12 -2 54l-645 1114q-16 31 -23 33q-6 4 -23 -7z" />
<glyph unicode="&#xad;" horiz-adv-x="724" d="M100 426q0 35 47 45q8 2 29 2h55h330q72 0 82 -2q47 -10 47 -45q0 -45 -127 -45h-336q-127 0 -127 45z" />
<glyph unicode="&#xae;" horiz-adv-x="1589" d="M88 682q0 -295 205 -500q205 -203 502 -202q295 0 501 202q205 205 205 500q0 166 -78 322q-90 178 -256 280q-168 106 -362 107q-184 0 -330 -76q-90 -47 -161.5 -113.5t-122 -147.5t-77 -176.5t-26.5 -195.5zM203 682q0 244 170 424q172 180 415 180q246 0 422 -176 t176 -428t-172 -426q-170 -176 -419 -176q-248 0 -420 176q-172 174 -172 426zM500 1081q10 -70 13 -160t1 -202q-2 -143 0 -230q2 -125 -6 -217q33 2 53 2q23 0 35 2q16 -2 37 -2q23 0 49 -2l-4 17q-12 82 -12 262l2 401q37 14 88 15q80 0 109.5 -35t29.5 -123 q0 -43 -14 -72q-14 8 -23.5 13.5t-15.5 9.5q-33 -23 -73 -46.5t-89 -49.5q76 -29 111 -66q25 -29 55 -117q16 -51 27.5 -82.5t19.5 -44.5q29 -47 82 -67q20 -8 41.5 -13.5t44.5 -9.5q51 59 78.5 93t34.5 40l-21 19q-23 -12 -33 -13q-55 0 -88 37q-16 18 -43 99 q-41 129 -86 180q45 18 80 32.5t61 24.5q2 27 3.5 43.5t1.5 22.5q0 195 -123 250q-29 14 -66 20t-84 8l-108 -125v37q2 29 2 51q0 25 2 45q-45 -10 -88 -18t-84 -14v-15z" />
<glyph unicode="&#xb2;" d="M201 82q4 -59 24 -72q8 -8 23 -8q14 0 28 8q41 31 68 40t76 9q51 0 143 -26l37 -10q84 -23 129 -23q74 0 127 49q68 63 68 234q0 29 -2 36q-8 49 -35 56q-8 2 -21 2q-20 0 -35 -27l-22 -45q-8 -16 -12 -20q-16 -25 -68 -29q-33 0 -88 20q-31 12 -92 9q-80 -6 -180 -70 q41 133 172 250l133 117q131 117 174 172q63 88 61 198q-6 154 -143 236q-82 47 -209 47q-119 0 -197 -39q-63 -31 -107 -87t-50 -112q-10 -84 53 -135q45 -41 111 -18q82 27 82 110q0 61 -64 101q39 82 125 82q31 0 61 -13q111 -47 111 -202q0 -145 -154 -289l-71 -68 q-266 -247 -256 -483z" />
<glyph unicode="&#xb3;" d="M188 178q76 -197 332 -196q193 0 314 116q109 109 108 287q0 225 -244 317q180 123 181 275q0 55 -34 113.5t-87 91.5q-80 49 -185 49q-98 0 -174 -39q-135 -63 -147 -186q-10 -78 43 -121q53 -41 104 -23q76 27 76 103q0 53 -55 90q47 72 115 71q61 0 104 -44t43 -107 q0 -102 -111 -250h-67q-25 0 -33 -2q-133 -16 -172 -92q-16 -37 -2 -68q20 -39 63 -35q55 20 89 43q45 27 90 31q76 6 120 -49q59 -72 60 -197q0 -106 -43 -182q-51 -94 -152 -94q-51 0 -90 32.5t-51 92.5q-6 29 -9 51.5t-5 36.5q-23 49 -88 55q-51 2 -82 -37 q-42 -57 -11 -133z" />
<glyph unicode="&#xb4;" horiz-adv-x="411" d="M104 967q0 -23 25 -23q12 0 29 10l182 138q45 33 37 61q-12 41 -43 45q-29 4 -70 -37q-45 -47 -79.5 -87t-61.5 -70q-19 -23 -19 -37z" />
<glyph unicode="&#xb6;" horiz-adv-x="1212" d="M27 1063q-12 -162 92 -250q94 -82 260 -82h256v-850h80v1411h145v-1411h82v1411h94v29h-690q-301 0 -319 -258zM319 1030q-4 113 61.5 187.5t176.5 74.5h78v-528h-78q-125 0 -184 72q-52 65 -54 194z" />
<glyph unicode="&#xb7;" horiz-adv-x="358" d="M121 604q2 -45 33.5 -74.5t74.5 -27.5t74 33.5t29 74.5t-35 73t-76 28t-72.5 -33t-27.5 -74z" />
<glyph unicode="&#x2219;" horiz-adv-x="358" d="M121 604q2 -45 33.5 -74.5t74.5 -27.5t74 33.5t29 74.5t-35 73t-76 28t-72.5 -33t-27.5 -74z" />
<glyph unicode="&#xb8;" horiz-adv-x="722" d="M236 -289q0 -53 51 -86q45 -27 102 -26q51 0 82 14q94 43 111 151q16 96 -54 158q-41 37 -94 37q-39 0 -96 -18l20 67h-59l-23 -92q-14 -57 3 -68q18 0 51 33q25 14 49 19q49 6 80 -33q45 -55 12 -154q-23 -68 -76 -75q-25 -6 -49 6q-33 6 -33 41l13 12q6 6 14 10 q8 8 6 31q-4 27 -31 43q-25 12 -47 -4q-32 -25 -32 -66z" />
<glyph unicode="&#xb9;" d="M266 1118q-10 -27 6.5 -45t59.5 -18q16 -4 31.5 -6t31.5 -7q47 -29 47 -131v-700q0 -74 -41 -96q-4 -2 -23.5 -7.5t-53.5 -13.5q-41 -10 -41 -49q0 -35 39 -43q8 -2 73 -2h336q63 0 72 2q39 8 39 43q0 20 -11.5 32.5t-28 19.5t-38 11.5t-39.5 10.5q-41 23 -41 88l-2 948 q0 78 -45 78q-16 0 -33 -10q-86 -53 -141 -66q-16 -4 -52 -5t-94 -3q-39 0 -51 -31z" />
<glyph unicode="&#xba;" horiz-adv-x="1064" d="M98 422q4 -188 135 -318q137 -137 361 -137q199 0 336 133q133 133 133 332q0 209 -139 336q-133 125 -351 125q-207 0 -344 -137q-131 -131 -131 -322v-12zM309 512q0 203 150 254q37 12 76 12q88 0 163 -63q82 -70 125 -193q29 -86 29 -170q0 -205 -141 -262 q-43 -18 -88 -18q-88 0 -165 65.5t-114 175.5q-35 105 -35 199z" />
<glyph unicode="&#xbb;" horiz-adv-x="485" d="M98 729q0 -18 8 -37l82 -233l-79 -248q-16 -53 14 -53q18 0 35 28l47 84l67 117q23 41 23 66t-90 182l-45 80q-20 39 -45 39q-17 0 -17 -25zM254 727q0 -16 8 -35l82 -233l-80 -248q-14 -51 17 -51q20 0 34 26l45 84q16 29 33 58.5t33 58.5q20 39 20 66q2 20 -86 182 l-43 80q-20 39 -45 39q-18 0 -18 -27z" />
<glyph unicode="&#xbf;" horiz-adv-x="911" d="M100 285q6 -162 152 -246q82 -45 207 -45q143 0 246 53q160 88 172 225q8 94 -66 150q-59 47 -129 20q-88 -33 -88 -116q0 -57 74 -127q-55 -94 -154 -95q-25 0 -49 7q-131 33 -131 186q0 117 108 244l76 88q43 51 68.5 81.5t34.5 41.5q49 70 49 131q0 57 -40 102t-98 45 q-45 0 -73.5 -31.5t-28.5 -76.5q0 -12 3 -32t6 -40.5t6.5 -39.5t3.5 -32q0 -53 -37 -98q-14 -16 -42 -39t-69 -51l-27 -19q-182 -126 -174 -286zM391 1251q2 -57 44 -96t101.5 -37t98.5 44t37 102q-2 59 -44 98t-102 37q-57 -2 -97 -45.5t-38 -102.5z" />
<glyph unicode="&#xc0;" horiz-adv-x="1378" d="M86 45q0 -49 121 -45h207h82q35 4 47 23q8 20 0 45q-10 18 -25 20q-4 2 -12 2q-6 0 -19 2q-33 0 -55 22.5t-4 82.5l57 182h406l20 -51q49 -123 50 -160q0 -55 -70 -76q-53 -16 -55 -20q-23 -23 -7 -47q14 -25 93 -25h276q176 4 188 12q14 12 9 39q-4 18 -17 29 q-4 2 -11 5t-17 7q-86 33 -121 80q-4 8 -16.5 37t-30.5 80l-353 983q-33 92 -58.5 132t-57.5 40q-25 0 -66 -29q-59 -41 -67 -43q-27 -10 -52.5 -22.5t-52.5 -22.5q-59 -25 -61 -45q-8 -23 7 -41t42 -16l31 3l10 1q47 -10 67 -33q14 -14 47 -80l-307 -819 q-59 -154 -108 -186q-23 -16 -76 -25q-41 -4 -41 -41zM440 1724q-10 -29 37 -61l182 -137q16 -10 29 -10q25 0 25 22q0 14 -19 37q-53 63 -89 102t-52 56q-41 41 -70 36q-31 -2 -43 -45zM535 512l155 418l156 -418h-311z" />
<glyph unicode="&#xc1;" horiz-adv-x="1378" d="M80 45q0 -49 121 -45h207h81q37 4 48 23q8 20 0 45q-10 18 -25 20l-31 4q-33 0 -55.5 24.5t-3.5 80.5l59 182h406l20 -51q47 -119 47 -160q0 -55 -67 -76q-53 -16 -58 -20q-20 -20 -4 -47q14 -25 90 -25h279q176 4 188 12q12 12 7 39q-4 18 -17 29q-4 2 -11 5t-18 7 q-88 33 -118 80q-4 8 -16.5 37t-30.5 80l-355 983q-35 100 -61 137q-25 35 -53 35q-27 0 -68 -29q-59 -41 -68 -43q-25 -12 -53 -23.5t-52 -22.5t-41 -22.5t-19 -21.5q-8 -25 8 -42t43 -15l30 3l11 1q45 -6 65 -33q14 -14 47 -80l-307 -819q-59 -154 -108 -186 q-23 -16 -76 -25q-41 -4 -41 -41zM469 1540q0 -23 25 -22q12 0 28 10l185 137q43 35 34 61q-12 41 -43 46q-29 4 -69 -37q-45 -47 -80 -87t-62 -71q-18 -23 -18 -37zM528 512l158 418l154 -418h-312z" />
<glyph unicode="&#xc2;" horiz-adv-x="1378" d="M80 45q0 -49 121 -45h207h81q37 4 48 23q8 20 0 45q-10 18 -25 20l-31 4q-33 0 -55.5 24.5t-3.5 80.5l59 182h406l20 -51q47 -119 47 -160q0 -55 -67 -76q-53 -16 -58 -20q-20 -20 -4 -47q14 -25 90 -25h279q176 4 188 12q12 12 7 39q-4 18 -17 29q-4 2 -11 5t-18 7 q-88 33 -118 80q-4 8 -16.5 37t-30.5 80l-355 983q-35 100 -61 137q-25 35 -53 35q-27 0 -68 -29q-59 -41 -68 -43q-25 -12 -53 -23.5t-52 -22.5t-41 -22.5t-19 -21.5q-8 -25 8 -42t43 -15l30 3l11 1q45 -6 65 -33q14 -14 47 -80l-307 -819q-59 -154 -108 -186 q-23 -16 -76 -25q-41 -4 -41 -41zM463 1530q0 -12 20 -12q12 0 31 6q57 18 96 30.5t62 18.5l157 -51q51 -14 52 10q0 14 -27 33q-43 29 -74.5 48t-54.5 34q-35 23 -55 22q-23 0 -82 -41l-103 -69q-22 -17 -22 -29zM528 512l158 418l154 -418h-312z" />
<glyph unicode="&#xc3;" horiz-adv-x="1378" d="M80 45q0 -49 121 -45h207h81q37 4 48 23q8 20 0 45q-10 18 -25 20l-31 4q-33 0 -55.5 24.5t-3.5 80.5l59 182h406l20 -51q47 -119 47 -160q0 -55 -67 -76q-53 -16 -58 -20q-20 -20 -4 -47q14 -25 90 -25h279q176 4 188 12q12 12 7 39q-4 18 -17 29q-4 2 -11 5t-18 7 q-88 33 -118 80q-4 8 -16.5 37t-30.5 80l-355 983q-35 100 -61 137q-25 35 -53 35q-27 0 -68 -29q-59 -41 -68 -43q-25 -12 -53 -23.5t-52 -22.5t-41 -22.5t-19 -21.5q-8 -25 8 -42t43 -15l30 3l11 1q45 -6 65 -33q14 -14 47 -80l-307 -819q-59 -154 -108 -186 q-23 -16 -76 -25q-41 -4 -41 -41zM473 1536q4 -10 14 -2q49 25 86 25q18 0 64 -11q66 -18 90.5 -23t44.5 -5q84 0 162 71q8 8 8 17q0 10 -10 10q4 0 -47 -19q-41 -16 -105 3l-28 8q-61 16 -109 16q-104 0 -166 -72q-10 -10 -4 -18zM528 512l158 418l154 -418h-312z" />
<glyph unicode="&#xc4;" horiz-adv-x="1378" d="M80 45q0 -49 121 -45h207h81q37 4 48 23q8 20 0 45q-10 18 -25 20l-31 4q-33 0 -55.5 24.5t-3.5 80.5l59 182h406l20 -51q47 -119 47 -160q0 -55 -67 -76q-53 -16 -58 -20q-20 -20 -4 -47q14 -25 90 -25h279q176 4 188 12q12 12 7 39q-4 18 -17 29q-4 2 -11 5t-18 7 q-88 33 -118 80q-4 8 -16.5 37t-30.5 80l-355 983q-35 100 -61 137q-25 35 -53 35q-27 0 -68 -29q-59 -41 -68 -43q-25 -12 -53 -23.5t-52 -22.5t-41 -22.5t-19 -21.5q-8 -25 8 -42t43 -15l30 3l11 1q45 -6 65 -33q14 -14 47 -80l-307 -819q-59 -154 -108 -186 q-23 -16 -76 -25q-41 -4 -41 -41zM471 1597q0 -33 21.5 -56t54.5 -23t56.5 22.5t23.5 54.5q0 33 -21.5 55.5t-54.5 22.5t-56.5 -21.5t-23.5 -54.5zM526 512l160 418l154 -418h-314zM750 1597q0 -33 22.5 -56t54.5 -23q33 0 56.5 22.5t23.5 54.5q0 33 -22.5 55.5t-55.5 22.5 q-31 0 -55 -22.5t-24 -53.5z" />
<glyph unicode="&#xc5;" horiz-adv-x="1378" d="M80 45q0 -49 121 -45h207h81q37 4 48 23q8 20 0 45q-10 18 -25 20l-31 4q-33 0 -55.5 24.5t-3.5 80.5l59 182h406l20 -51q47 -119 47 -160q0 -55 -67 -76q-53 -16 -58 -20q-20 -20 -4 -47q14 -25 90 -25h279q176 4 188 12q12 12 7 39q-4 18 -17 29q-4 2 -11 5t-18 7 q-88 33 -118 80q-4 8 -16.5 37t-30.5 80l-355 983q-35 100 -61 137q-25 35 -53 35q-27 0 -68 -29q-59 -41 -68 -43q-25 -12 -53 -23.5t-52 -22.5t-41 -22.5t-19 -21.5q-8 -25 8 -42t43 -15l30 3l11 1q45 -6 65 -33q14 -14 47 -80l-307 -819q-59 -154 -108 -186 q-23 -16 -76 -25q-41 -4 -41 -41zM526 512l160 418l154 -418h-314zM584 1626q0 -45 32.5 -76.5t77.5 -31.5t78 32.5t33 79.5q0 43 -35 75t-80 32t-75.5 -33t-30.5 -78zM625 1628q0 66 67 66q68 0 68 -66q0 -68 -68 -67q-67 -1 -67 67z" />
<glyph unicode="&#xc6;" horiz-adv-x="1685" d="M80 45q0 -49 121 -45h207h81q37 4 48 23q8 20 0 45q-12 20 -50 24q-35 4 -51 24.5t-16 51.5q0 51 61 172l21 39h362v-168q0 -74 -41 -96q-4 -2 -23.5 -7.5t-54.5 -13.5q-41 -10 -40 -49q0 -35 38 -43q8 -2 72 -2h516q78 0 120 -1t52 -3q31 -10 33 -64q4 -37 47 -28 q29 6 51 65q4 8 12.5 37t22.5 78l25 88q33 111 32 135q0 20 -17 34.5t-38 6.5q-51 -51 -80 -96q-47 -61 -98 -98q-90 -61 -190 -62q-53 0 -99 23q-72 37 -92 143q-8 41 -8 162v260h119q43 0 53 -2q61 -4 92 -23q35 -23 76 -77q47 -57 55 -60q27 -12 47 14q10 10 10 31 q0 14 -45 156l-18 59q-45 147 -76 164q-25 12 -49 -10q-6 -6 -6 -21q0 -12 1 -27.5t1 -29.5t-6 -25q-25 -37 -164 -36h-90v469q29 2 52.5 3t43.5 1q203 0 291 -107q25 -31 35 -49t16 -29.5t14.5 -18.5t26.5 -13q49 -10 49 45q0 37 -30 127l-76 202q-23 63 -64 47 q-23 -10 -24 -57q-4 -41 -74 -41h-594q-160 0 -172 -12q-14 -20 -12 -39q2 -14 14 -27q2 -2 27 -12q31 -8 60.5 -17.5t47.5 -45.5q4 -12 4 -25q0 -39 -69 -176l-367 -729q-33 -66 -61.5 -108t-51.5 -62q-14 -12 -73 -29q-37 -10 -37 -45zM567 506l305 614v-614h-305z" />
<glyph unicode="&#xc7;" horiz-adv-x="1220" d="M102 662q0 -76 13 -140q39 -221 143 -350q113 -137 340 -203l-10 -39q0 -6 -8 -36q-12 -57 4 -68q16 0 49 33q25 16 51 18q47 6 78 -33q18 -25 22 -77q0 -41 -10 -76q-20 -59 -76 -76q-25 -6 -49 6q-33 6 -33 41l13 12q6 6 14 11q8 8 6 30q-4 27 -31 43q-20 12 -47 -4 q-31 -23 -30 -65q0 -53 51 -86q45 -29 100 -29q45 0 82 16q94 43 111 152q16 96 -54 158q-41 37 -94 37q-37 0 -94 -19l14 51q111 -8 181 4q100 18 202 66q115 57 156 135q10 29 0 47q-18 20 -43 21q-4 0 -90 -43q-43 -23 -86 -31q-47 -10 -91 -14t-83 0q-240 27 -373 290 q-78 156 -78 340q0 182 80 322q106 184 283 194q184 8 307 -163q23 -33 38 -55.5t19 -37.5q47 -74 64 -79q29 -4 45 16q8 8 8 33q0 31 -39 166l-51 178q-27 94 -53 104q-16 6 -28.5 5t-21 -13t-9.5 -40t7 -73q-174 78 -294 78q-158 0 -316 -119q-147 -109 -225 -301 q-64 -157 -64 -337z" />
<glyph unicode="&#xc8;" horiz-adv-x="1079" d="M98 45q0 -35 39 -43q8 -2 74 -2h516q76 0 119 -1t53 -3q31 -10 33 -64q4 -37 45 -28q31 6 51 63q8 29 16.5 58.5t18.5 58.5l27 88q33 104 32 133q0 23 -17.5 37t-37.5 6q-51 -51 -80 -96q-47 -66 -98 -98q-90 -61 -191 -62q-53 0 -98 23q-74 41 -92 143q-4 20 -6 61 t-2 101v260h170q57 -4 92 -25q16 -10 35.5 -29.5t42.5 -47.5q47 -57 53 -60q29 -10 49 14q10 10 10 31q0 14 -45 156l-18 59q-45 147 -78 164q-29 12 -47 -10q-10 -10 -10 -25q0 -6 3 -22.5t3 -24.5q0 -20 -8 -31q-23 -37 -164 -36h-88v469q29 2 52 3t44 1q203 0 291 -107 q25 -31 35 -49t16 -29.5t13 -18.5t26 -13q29 -4 43 20q6 8 6 27q0 39 -31 125l-73 202q-20 63 -66 47q-23 -10 -25 -36q0 -39 -13 -50.5t-58 -11.5h-549q-66 0 -74 -2q-39 -8 -39 -43q0 -39 41 -49q35 -8 54.5 -13t23.5 -8q41 -23 41 -96v-950q0 -74 -41 -96 q-4 -2 -23.5 -7.5t-54.5 -13.5q-41 -10 -41 -49zM381 1726q-10 -29 37 -61l182 -137q16 -10 29 -10q25 0 24 22q0 14 -18 37q-53 63 -89 102t-52 56q-41 41 -70 37q-31 -5 -43 -46z" />
<glyph unicode="&#xc9;" horiz-adv-x="1079" d="M98 45q0 -35 39 -43q8 -2 74 -2h516q76 0 119 -1t53 -3q31 -10 33 -64q4 -37 45 -28q31 6 51 63q8 29 16.5 58.5t18.5 58.5l27 88q33 104 32 133q0 23 -17.5 37t-37.5 6q-51 -51 -80 -96q-47 -66 -98 -98q-90 -61 -191 -62q-53 0 -98 23q-74 41 -92 143q-4 20 -6 61 t-2 101v260h170q57 -4 92 -25q16 -10 35.5 -29.5t42.5 -47.5q47 -57 53 -60q29 -10 49 14q10 10 10 31q0 14 -45 156l-18 59q-45 147 -78 164q-29 12 -47 -10q-10 -10 -10 -25q0 -6 3 -22.5t3 -24.5q0 -20 -8 -31q-23 -37 -164 -36h-88v469q29 2 52 3t44 1q203 0 291 -107 q25 -31 35 -49t16 -29.5t13 -18.5t26 -13q29 -4 43 20q6 8 6 27q0 39 -31 125l-73 202q-20 63 -66 47q-23 -10 -25 -36q0 -39 -13 -50.5t-58 -11.5h-549q-66 0 -74 -2q-39 -8 -39 -43q0 -39 41 -49q35 -8 54.5 -13t23.5 -8q41 -23 41 -96v-950q0 -74 -41 -96 q-4 -2 -23.5 -7.5t-54.5 -13.5q-41 -10 -41 -49zM420 1536q0 -20 24 -20q12 0 29 10l182 135q45 33 35 61q-10 43 -43 45q-29 2 -67 -36q-45 -47 -80 -87t-62 -71q-18 -23 -18 -37z" />
<glyph unicode="&#xca;" horiz-adv-x="1079" d="M98 45q0 -35 39 -43q8 -2 74 -2h516q76 0 119 -1t53 -3q31 -10 33 -64q4 -37 45 -28q31 6 51 63q8 29 16.5 58.5t18.5 58.5l27 88q33 104 32 133q0 23 -17.5 37t-37.5 6q-51 -51 -80 -96q-47 -66 -98 -98q-90 -61 -191 -62q-53 0 -98 23q-74 41 -92 143q-4 20 -6 61 t-2 101v260h170q57 -4 92 -25q16 -10 35.5 -29.5t42.5 -47.5q47 -57 53 -60q29 -10 49 14q10 10 10 31q0 14 -45 156l-18 59q-45 147 -78 164q-29 12 -47 -10q-10 -10 -10 -25q0 -6 3 -22.5t3 -24.5q0 -20 -8 -31q-23 -37 -164 -36h-88v469q29 2 52 3t44 1q203 0 291 -107 q25 -31 35 -49t16 -29.5t13 -18.5t26 -13q29 -4 43 20q6 8 6 27q0 39 -31 125l-73 202q-20 63 -66 47q-23 -10 -25 -36q0 -39 -13 -50.5t-58 -11.5h-549q-66 0 -74 -2q-39 -8 -39 -43q0 -39 41 -49q35 -8 54.5 -13t23.5 -8q41 -23 41 -96v-950q0 -74 -41 -96 q-4 -2 -23.5 -7.5t-54.5 -13.5q-41 -10 -41 -49zM309 1530q0 -12 21 -12q12 0 30 6q113 37 160 49l156 -51q16 -4 24 -4q27 0 27 16q0 12 -25 31q-82 55 -131 82q-33 20 -53 20q-25 0 -80 -37q-29 -18 -54.5 -36.5t-50 -35t-24.5 -28.5z" />
<glyph unicode="&#xcb;" horiz-adv-x="1079" d="M98 45q0 -35 39 -43q8 -2 74 -2h516q76 0 119 -1t53 -3q31 -10 33 -64q4 -37 45 -28q31 6 51 63q8 29 16.5 58.5t18.5 58.5l27 88q33 104 32 133q0 23 -17.5 37t-37.5 6q-51 -51 -80 -96q-47 -66 -98 -98q-90 -61 -191 -62q-53 0 -98 23q-74 41 -92 143q-4 20 -6 61 t-2 101v260h170q57 -4 92 -25q16 -10 35.5 -29.5t42.5 -47.5q47 -57 53 -60q29 -10 49 14q10 10 10 31q0 14 -45 156l-18 59q-45 147 -78 164q-29 12 -47 -10q-10 -10 -10 -25q0 -6 3 -22.5t3 -24.5q0 -20 -8 -31q-23 -37 -164 -36h-88v469q29 2 52 3t44 1q203 0 291 -107 q25 -31 35 -49t16 -29.5t13 -18.5t26 -13q29 -4 43 20q6 8 6 27q0 39 -31 125l-73 202q-20 63 -66 47q-23 -10 -25 -36q0 -39 -13 -50.5t-58 -11.5h-549q-66 0 -74 -2q-39 -8 -39 -43q0 -39 41 -49q35 -8 54.5 -13t23.5 -8q41 -23 41 -96v-950q0 -74 -41 -96 q-4 -2 -23.5 -7.5t-54.5 -13.5q-41 -10 -41 -49zM319 1597q0 -33 23 -56t55 -23q33 0 56.5 22.5t23.5 54.5q0 33 -22.5 55.5t-55.5 22.5q-31 0 -55.5 -22.5t-24.5 -53.5zM600 1597q0 -33 21.5 -56t54.5 -23t56.5 22.5t23.5 54.5q0 33 -21.5 55.5t-54.5 22.5t-56.5 -21.5 t-23.5 -54.5z" />
<glyph unicode="&#xcc;" horiz-adv-x="692" d="M98 45q0 -35 39 -43q8 -2 74 -2h336q63 0 71 2q39 8 39 43q0 39 -41 49q-72 16 -77 19q-41 25 -41 98v950q0 74 41 96q4 2 23.5 7.5t53.5 13.5q41 10 41 49q0 35 -39 43q-8 2 -71 2h-336q-66 0 -74 -2q-39 -8 -39 -43q0 -39 41 -49q35 -8 54.5 -13t23.5 -8q41 -23 41 -96 v-950q0 -74 -41 -96q-4 -2 -23.5 -7.5t-54.5 -13.5q-41 -10 -41 -49zM240 1726q-10 -29 36 -61l183 -137q16 -10 28 -10q25 0 25 22q0 14 -18 37q-53 63 -89 102t-53 56q-41 41 -69 37q-31 -5 -43 -46z" />
<glyph unicode="&#xcd;" horiz-adv-x="692" d="M98 45q0 -35 39 -43q8 -2 74 -2h336q63 0 71 2q39 8 39 43q0 39 -41 49q-72 16 -77 19q-41 25 -41 98v950q0 74 41 96q4 2 23.5 7.5t53.5 13.5q41 10 41 49q0 35 -39 43q-8 2 -71 2h-336q-66 0 -74 -2q-39 -8 -39 -43q0 -39 41 -49q35 -8 54.5 -13t23.5 -8q41 -23 41 -96 v-950q0 -74 -41 -96q-4 -2 -23.5 -7.5t-54.5 -13.5q-41 -10 -41 -49zM285 1538q0 -23 24 -22q12 0 29 10l184 137q43 35 35 61q-12 41 -43 45q-29 4 -70 -36q-45 -47 -79.5 -87t-61.5 -71q-18 -23 -18 -37z" />
<glyph unicode="&#xce;" horiz-adv-x="692" d="M98 45q0 -35 39 -43q8 -2 74 -2h336q63 0 71 2q39 8 39 43q0 39 -41 49q-72 16 -77 19q-41 25 -41 98v950q0 74 41 96q4 2 23.5 7.5t53.5 13.5q41 10 41 49q0 35 -39 43q-8 2 -71 2h-336q-66 0 -74 -2q-39 -8 -39 -43q0 -39 41 -49q35 -8 54.5 -13t23.5 -8q41 -23 41 -96 v-950q0 -74 -41 -96q-4 -2 -23.5 -7.5t-54.5 -13.5q-41 -10 -41 -49zM160 1530q0 -12 20 -12q14 0 33 6q57 18 96 30.5t62 18.5l155 -51q16 -4 25 -4q27 0 27 16q0 12 -25 31q-82 55 -131 82q-35 23 -53 22q-23 0 -80 -39q-29 -18 -54.5 -36.5t-50 -35t-24.5 -28.5z" />
<glyph unicode="&#xcf;" horiz-adv-x="692" d="M98 45q0 -35 39 -43q8 -2 74 -2h336q63 0 71 2q39 8 39 43q0 39 -41 49q-72 16 -77 19q-41 25 -41 98v950q0 74 41 96q4 2 23.5 7.5t53.5 13.5q41 10 41 49q0 35 -39 43q-8 2 -71 2h-336q-66 0 -74 -2q-39 -8 -39 -43q0 -39 41 -49q35 -8 54.5 -13t23.5 -8q41 -23 41 -96 v-950q0 -74 -41 -96q-4 -2 -23.5 -7.5t-54.5 -13.5q-41 -10 -41 -49zM164 1604q0 -33 21.5 -56.5t54.5 -23.5t56 22.5t23 55.5t-21.5 55t-53.5 22q-33 0 -56.5 -21t-23.5 -54zM442 1604q0 -33 22.5 -56.5t55.5 -23.5t56.5 22.5t23.5 55.5t-22.5 55t-55.5 22q-31 0 -55.5 -22 t-24.5 -53z" />
<glyph unicode="&#xd1;" horiz-adv-x="1378" d="M31 1094q-6 -39 37 -39q16 0 24 8l25 29q12 14 22 28q37 43 74 43q35 0 82 -37v-915q0 -74 -41 -96q-4 -2 -23.5 -7.5t-56.5 -13.5q-41 -10 -41 -49q0 -35 39 -43q8 -2 74 -2h256q63 0 71 2q39 8 39 43q0 39 -41 49q-72 16 -77 19q-41 23 -41 98v801q72 -41 156.5 -137.5 t189.5 -245.5q215 -317 233 -506q4 -41 6 -63.5t4 -26.5q8 -33 41 -33h78q41 0 49 27q2 10 3 44.5t1 98.5v991q0 74 41 99q6 2 78 18q41 10 41 49q0 35 -39 43q-8 2 -71 2h-256q-66 0 -74 -2q-39 -8 -39 -43q0 -39 41 -49q35 -8 54.5 -13t23.5 -8q41 -23 41 -96v-446 q-104 174 -214 306t-233 226q-213 164 -385 158q-82 -2 -125 -86q-10 -18 -36.5 -110t-30.5 -115zM508 1534q4 -10 14 -2q51 25 88 24q18 0 64 -10q66 -18 90 -23t45 -5q84 0 162 71q10 6 6 17q0 10 -10 10q-6 0 -33 -13.5t-55 -13.5q-27 0 -64 10l-27 9q-59 18 -108 18 q-104 0 -168 -74q-8 -8 -4 -18z" />
<glyph unicode="&#xd2;" horiz-adv-x="1583" d="M104 735q0 -152 58 -299q82 -217 284 -348q193 -121 418 -121q129 0 248 41q211 76 336 268q121 188 121 412q0 135 -47 264q-80 217 -274.5 344t-420.5 127q-127 0 -237 -39q-233 -78 -359 -251q-127 -177 -127 -398zM367 811q0 172 71 299q80 135 230 178q61 16 116 17 q168 0 301 -142q117 -123 179 -317q45 -141 45 -289q0 -170 -64 -283q-70 -129 -215 -170q-72 -18 -133 -18q-178 0 -311 139q-121 125 -183 334q-36 125 -36 252zM778 1726q-8 -27 35 -61l182 -137q16 -10 29 -10q27 0 27 22q0 14 -19 37q-53 63 -89 102t-52 56 q-41 41 -70 36.5t-43 -45.5z" />
<glyph unicode="&#xd3;" horiz-adv-x="1583" d="M104 735q0 -152 58 -299q82 -217 284 -348q193 -121 418 -121q129 0 248 41q211 76 336 268q121 188 121 412q0 135 -47 264q-80 217 -274.5 344t-420.5 127q-127 0 -237 -39q-233 -78 -359 -251q-127 -177 -127 -398zM367 811q0 172 71 299q80 135 230 178q61 16 116 17 q168 0 301 -142q117 -123 179 -317q45 -141 45 -289q0 -170 -64 -283q-70 -129 -215 -170q-72 -18 -133 -18q-178 0 -311 139q-121 125 -183 334q-36 125 -36 252zM528 1540q0 -23 25 -22q14 0 31 10l182 137q43 35 35 61q-14 41 -43 45.5t-70 -36.5q-45 -47 -80 -87 t-61 -71q-19 -23 -19 -37z" />
<glyph unicode="&#xd4;" horiz-adv-x="1583" d="M104 735q0 -152 58 -299q82 -217 284 -348q193 -121 418 -121q129 0 248 41q211 76 336 268q121 188 121 412q0 135 -47 264q-80 217 -274.5 344t-420.5 127q-127 0 -237 -39q-233 -78 -359 -251q-127 -177 -127 -398zM367 811q0 172 71 299q80 135 230 178q61 16 116 17 q168 0 301 -142q117 -123 179 -317q45 -141 45 -289q0 -170 -64 -283q-70 -129 -215 -170q-72 -18 -133 -18q-178 0 -311 139q-121 125 -183 334q-36 125 -36 252zM662 1532q0 -12 20 -12q12 0 31 6q57 18 96 30.5t61 18.5l158 -51q51 -14 51 10q0 14 -24 33q-82 55 -131 82 q-33 20 -52 20q-20 0 -84 -41q-27 -16 -52 -33.5t-49.5 -34t-24.5 -28.5z" />
<glyph unicode="&#xd5;" horiz-adv-x="1583" d="M104 735q0 -152 58 -299q82 -217 284 -348q193 -121 418 -121q129 0 248 41q211 76 336 268q121 188 121 412q0 135 -47 264q-80 217 -274.5 344t-420.5 127q-127 0 -237 -39q-233 -78 -359 -251q-127 -177 -127 -398zM367 811q0 172 71 299q80 135 230 178q61 16 116 17 q168 0 301 -142q117 -123 179 -317q45 -141 45 -289q0 -170 -64 -283q-70 -129 -215 -170q-72 -18 -133 -18q-178 0 -311 139q-121 125 -183 334q-36 125 -36 252zM629 1536q6 -8 16 -2q49 25 86 25q18 0 64 -11q66 -18 90 -23t45 -5q84 0 162 71q10 6 6 17q0 10 -11 10 q-6 0 -32.5 -13.5t-55.5 -13.5q-27 0 -63 11l-27 8q-59 18 -108 18q-104 0 -168 -74q-8 -8 -4 -18z" />
<glyph unicode="&#xd6;" horiz-adv-x="1583" d="M104 735q0 -152 58 -299q82 -217 284 -348q193 -121 418 -121q129 0 248 41q211 76 336 268q121 188 121 412q0 135 -47 264q-80 217 -274.5 344t-420.5 127q-127 0 -237 -39q-233 -78 -359 -251q-127 -177 -127 -398zM367 811q0 172 71 299q80 135 230 178q61 16 116 17 q168 0 301 -142q117 -123 179 -317q45 -141 45 -289q0 -170 -64 -283q-70 -129 -215 -170q-72 -18 -133 -18q-178 0 -311 139q-121 125 -183 334q-36 125 -36 252zM606 1597q0 -33 22.5 -56t55.5 -23t56.5 22.5t23.5 54.5q0 33 -22.5 55.5t-55.5 22.5q-31 0 -55.5 -22.5 t-24.5 -53.5zM887 1597q0 -33 21.5 -56t54.5 -23t56 22.5t23 54.5q0 33 -21.5 55.5t-53.5 22.5q-33 0 -56.5 -21.5t-23.5 -54.5z" />
<glyph unicode="&#xd7;" horiz-adv-x="1196" d="M162 410l121 -121l315 313l313 -313l121 123l-313 313l311 313l-119 121l-313 -313l-313 313l-123 -121l313 -313z" />
<glyph unicode="&#xd8;" horiz-adv-x="1583" d="M102 774q0 -170 31 -282q57 -201 221 -357l-80 -125q-14 -31 -14 -61q0 -39 29 -55q14 -8 35 -9q43 0 84 54l69 106q154 -86 340 -86q117 0 234 33q377 104 483 487q27 88 27 199q0 281 -160 477q-53 66 -135 125l61 94q20 29 21 56q0 31 -35 59q-23 18 -47 18 q-47 -4 -80 -51l-64 -98q-139 57 -372 57q-111 0 -240 -53q-197 -82 -307 -256q-101 -156 -101 -332zM362 811q0 35 2.5 66.5t6.5 60.5q37 268 254 344q68 25 133 25q158 0 276 -90l-561 -895q-111 202 -111 489zM584 215l555 885q162 -244 161 -551q0 -96 -20 -170 q-37 -133 -147 -215q-109 -80 -246 -80q-184 0 -303 131z" />
<glyph unicode="&#xd9;" horiz-adv-x="1306" d="M98 1327q0 -39 41 -49q35 -8 54.5 -13t23.5 -8q41 -23 41 -96v-749q0 -147 29 -222q43 -106 168 -176q102 -57 250 -57q143 0 241 55q123 68 170 187q31 76 31 213v749q0 74 41 96q4 2 23.5 7.5t54.5 13.5q41 10 41 49q0 35 -39 43q-8 2 -70 2h-252q-66 0 -74 -2 q-39 -8 -38 -43q0 -39 40 -49q35 -8 54.5 -13t23.5 -8q41 -23 41 -96v-690q0 -125 -14 -180q-29 -106 -109 -154q-57 -35 -127 -35q-72 0 -125 33q-90 53 -110 146q-8 35 -8 168v712q0 74 41 96q4 4 75 21q41 10 41 49q0 35 -39 43q-8 2 -71 2h-336q-66 0 -74 -2 q-39 -8 -39 -43zM618 1722q-8 -27 35 -61l183 -135q16 -10 28 -10q25 0 25 20q0 14 -19 37q-53 63 -89 102t-52 56q-41 39 -67 36q-30 -4 -44 -45z" />
<glyph unicode="&#xda;" horiz-adv-x="1306" d="M98 1327q0 -39 41 -49q35 -8 54.5 -13t23.5 -8q41 -23 41 -96v-749q0 -147 29 -222q43 -106 168 -176q102 -57 250 -57q143 0 241 55q123 68 170 187q31 76 31 213v749q0 74 41 96q4 2 23.5 7.5t54.5 13.5q41 10 41 49q0 35 -39 43q-8 2 -70 2h-252q-66 0 -74 -2 q-39 -8 -38 -43q0 -39 40 -49q35 -8 54.5 -13t23.5 -8q41 -23 41 -96v-690q0 -125 -14 -180q-29 -106 -109 -154q-57 -35 -127 -35q-72 0 -125 33q-90 53 -110 146q-8 35 -8 168v712q0 74 41 96q4 4 75 21q41 10 41 49q0 35 -39 43q-8 2 -71 2h-336q-66 0 -74 -2 q-39 -8 -39 -43zM553 1532q0 -16 14 -16t47 22l183 135q45 33 34 62q-10 43 -43 45q-27 2 -67 -35q-45 -47 -80 -87t-61 -71q-27 -28 -27 -55z" />
<glyph unicode="&#xdb;" horiz-adv-x="1306" d="M98 1327q0 -39 41 -49q35 -8 54.5 -13t23.5 -8q41 -23 41 -96v-749q0 -147 29 -222q43 -106 168 -176q102 -57 250 -57q143 0 241 55q123 68 170 187q31 76 31 213v749q0 74 41 96q4 2 23.5 7.5t54.5 13.5q41 10 41 49q0 35 -39 43q-8 2 -70 2h-252q-66 0 -74 -2 q-39 -8 -38 -43q0 -39 40 -49q35 -8 54.5 -13t23.5 -8q41 -23 41 -96v-690q0 -125 -14 -180q-29 -106 -109 -154q-57 -35 -127 -35q-72 0 -125 33q-90 53 -110 146q-8 35 -8 168v712q0 74 41 96q4 4 75 21q41 10 41 49q0 35 -39 43q-8 2 -71 2h-336q-66 0 -74 -2 q-39 -8 -39 -43zM532 1532q0 -12 19 -12q14 0 33 6q57 16 96 28.5t61 18.5l156 -51q16 -4 25 -4q27 0 26 16q0 12 -24 31q-82 55 -131 82q-33 20 -54 20q-23 0 -80 -37q-29 -16 -54 -34.5t-50 -34.5q-23 -17 -23 -29z" />
<glyph unicode="&#xdc;" horiz-adv-x="1306" d="M98 1327q0 -39 41 -49q35 -8 54.5 -13t23.5 -8q41 -23 41 -96v-749q0 -147 29 -222q43 -106 168 -176q102 -57 250 -57q143 0 241 55q123 68 170 187q31 76 31 213v749q0 74 41 96q4 2 23.5 7.5t54.5 13.5q41 10 41 49q0 35 -39 43q-8 2 -70 2h-252q-66 0 -74 -2 q-39 -8 -38 -43q0 -39 40 -49q35 -8 54.5 -13t23.5 -8q41 -23 41 -96v-690q0 -125 -14 -180q-29 -106 -109 -154q-57 -35 -127 -35q-72 0 -125 33q-90 53 -110 146q-8 35 -8 168v712q0 74 41 96q4 4 75 21q41 10 41 49q0 35 -39 43q-8 2 -71 2h-336q-66 0 -74 -2 q-39 -8 -39 -43zM539 1597q0 -33 21.5 -56t53.5 -23q33 0 56.5 22.5t23.5 54.5q0 33 -21.5 55.5t-54.5 22.5t-56 -21.5t-23 -54.5zM817 1597q0 -33 21.5 -56t54.5 -23t56.5 22.5t23.5 54.5q0 33 -21.5 55.5t-54.5 22.5t-56.5 -21.5t-23.5 -54.5z" />
<glyph unicode="&#xdd;" horiz-adv-x="1210" d="M45 1159q2 -45 51 -45q8 0 23.5 5t31 11.5t31 11.5t25.5 5q20 0 35 -8q106 -51 215 -242q94 -166 127 -319v-367q0 -74 -41 -96q-4 -2 -23.5 -7.5t-54.5 -13.5q-41 -10 -41 -49q0 -35 39 -43q8 -2 74 -2h335q63 0 72 2q39 8 39 43q0 39 -41 49q-72 16 -78 19 q-41 25 -41 98v414l355 616q20 33 20 64q0 68 -115 67h-161q-66 0 -76 47q-8 47 -37 51q-39 2 -55 -26q-23 -59 -43.5 -115.5t-36.5 -109.5q-8 -16 -8 -31q0 -31 57 -31h164q68 0 67 -20q0 -14 -43 -88l-159 -281q-16 41 -34 84t-34 84q-66 160 -162 285q-125 162 -248 174 q-57 6 -112 -72q-10 -6 -62 -74q-59 -74 -55 -90zM461 1536q0 -20 24 -20q12 0 29 10l182 135q45 33 35 61q-10 43 -43 45q-29 2 -67 -36q-45 -47 -80 -87t-62 -71q-18 -23 -18 -37z" />
<glyph unicode="&#xdf;" horiz-adv-x="1114" d="M92 803q8 -18 29.5 -25.5t48.5 -9.5t51.5 -1t36.5 1v-467v-98q0 -43 -7 -61.5t-28 -32.5q-10 -6 -25.5 -8.5t-30.5 -3.5t-29.5 -6t-20.5 -19q-4 -10 -3 -27.5t7 -28.5q8 -10 25.5 -13t37.5 -3h43q23 0 37 -2q10 -2 29.5 -4t56.5 -12q35 -10 56.5 -15.5t37.5 4.5 q25 14 21 52t-4 104v1069v61q0 35 7 69t22.5 64.5t46.5 53.5q29 20 64.5 23t64.5 -7q47 -16 71.5 -55t34.5 -76q12 -47 10 -89t-18 -83t-48 -86t-79 -96l-25 -27q-41 -43 -56 -78.5t-13 -76.5q2 -37 18.5 -69t43 -61.5t60 -60.5t68.5 -63l58 -56q66 -63 98.5 -119.5 t25.5 -121.5q-4 -41 -22.5 -79t-63.5 -63q-18 -10 -39.5 -15t-39.5 -3q-4 0 -14.5 2t-23 5t-22.5 9t-12 13q45 49 37 100q-4 23 -19.5 41t-31.5 27q-49 25 -93 -3q-35 -20 -47 -47.5t-14 -60.5q-2 -43 17.5 -77t60.5 -62q25 -16 60.5 -25.5t74.5 -11.5t75 1t60 13 q98 35 150.5 92.5t72.5 143.5q12 55 11.5 101t-20 90t-57.5 93t-97 113l-33 35q-68 74 -105 114.5t-43 74.5t17.5 73t74.5 106l21 27q70 90 88 163t-4 150q-23 68 -74 111t-110 61q-33 10 -72 14.5t-80 0.5t-82 -18.5t-76 -39.5q-63 -43 -99 -104t-54.5 -125.5t-23.5 -125 t-5 -101.5v-113q0 -37 -21.5 -51t-49 -19.5t-54.5 -7.5t-35 -12q-16 -22 -6 -49z" />
<glyph unicode="&#xe0;" horiz-adv-x="1042" d="M127 236q-14 -150 121 -226q63 -33 139 -33q152 0 322 132q0 -133 18 -142q16 -10 102 19q14 4 39 8t60 8q16 2 34.5 3t36.5 3q31 4 45.5 24.5t-0.5 39.5q-6 12 -34 18q-41 10 -58 21q-35 20 -45 61q-2 10 -2 109v251q0 113 -12 162q-20 98 -102 158q-70 51 -199 51 q-133 0 -227 -43q-172 -78 -185 -158q-10 -53 37 -88q33 -27 80 -10q33 12 68 53q14 16 26 33t27 33q51 57 123 76q82 23 135 -29q47 -45 33 -104q-18 -72 -113 -117q-25 -12 -141 -49l-66 -21q-127 -41 -184 -88q-70 -55 -78 -155zM340 252q2 68 76 108q25 14 157 60l31 14 q63 23 107 64q0 -150 -9 -191q-25 -117 -114 -172q-47 -29 -107 -29q-47 0 -82 23q-65 43 -59 123zM430 1167q-8 -27 35 -61l182 -135q16 -10 31 -10q23 0 22 20q0 14 -16 37q-109 129 -141 160q-41 37 -70 34q-29 -4 -43 -45z" />
<glyph unicode="&#xe1;" horiz-adv-x="1042" d="M127 236q-14 -150 121 -226q63 -33 139 -33q152 0 322 132q0 -133 18 -142q16 -10 102 19q14 4 39 8t60 8q16 2 34.5 3t36.5 3q31 4 45.5 24.5t-0.5 39.5q-6 12 -34 18q-41 10 -58 21q-35 20 -45 61q-2 10 -2 109v251q0 113 -12 162q-20 98 -102 158q-70 51 -199 51 q-133 0 -227 -43q-172 -78 -185 -158q-10 -53 37 -88q33 -27 80 -10q33 12 68 53q14 16 26 33t27 33q51 57 123 76q82 23 135 -29q47 -45 33 -104q-18 -72 -113 -117q-25 -12 -141 -49l-66 -21q-127 -41 -184 -88q-70 -55 -78 -155zM340 252q2 68 76 108q25 14 157 60l31 14 q63 23 107 64q0 -150 -9 -191q-25 -117 -114 -172q-47 -29 -107 -29q-47 0 -82 23q-65 43 -59 123zM401 979q0 -20 25 -21q12 0 29 11l182 135q43 35 35 61q-14 41 -43 45q-27 2 -68 -34q-90 -98 -141 -160q-19 -23 -19 -37z" />
<glyph unicode="&#xe2;" horiz-adv-x="1042" d="M127 236q-14 -150 121 -226q63 -33 139 -33q152 0 322 132q0 -133 18 -142q16 -10 102 19q14 4 39 8t60 8q16 2 34.5 3t36.5 3q31 4 45.5 24.5t-0.5 39.5q-6 12 -34 18q-41 10 -58 21q-35 20 -45 61q-2 10 -2 109v251q0 113 -12 162q-20 98 -102 158q-70 51 -199 51 q-133 0 -227 -43q-172 -78 -185 -158q-10 -53 37 -88q33 -27 80 -10q33 12 68 53q14 16 26 33t27 33q51 57 123 76q82 23 135 -29q47 -45 33 -104q-18 -72 -113 -117q-25 -12 -141 -49l-66 -21q-127 -41 -184 -88q-70 -55 -78 -155zM340 252q2 68 76 108q25 14 157 60l31 14 q63 23 107 64q0 -150 -9 -191q-25 -117 -114 -172q-47 -29 -107 -29q-47 0 -82 23q-65 43 -59 123zM356 971q0 -12 21 -13q12 0 31 7q57 18 96 30.5t61 18.5l158 -51q51 -14 51 10q0 14 -26 33q-43 29 -75 48t-55 33q-35 23 -55 23q-23 0 -82 -41q-27 -16 -51 -34.5 t-51 -35.5q-23 -16 -23 -28z" />
<glyph unicode="&#xe3;" horiz-adv-x="1042" d="M127 236q-14 -150 121 -226q63 -33 139 -33q152 0 322 132q0 -133 18 -142q16 -10 102 19q14 4 39 8t60 8q16 2 34.5 3t36.5 3q31 4 45.5 24.5t-0.5 39.5q-6 12 -34 18q-41 10 -58 21q-35 20 -45 61q-2 10 -2 109v251q0 113 -12 162q-20 98 -102 158q-70 51 -199 51 q-133 0 -227 -43q-172 -78 -185 -158q-10 -53 37 -88q33 -27 80 -10q33 12 68 53q14 16 26 33t27 33q51 57 123 76q82 23 135 -29q47 -45 33 -104q-18 -72 -113 -117q-25 -12 -141 -49l-66 -21q-127 -41 -184 -88q-70 -55 -78 -155zM326 977q4 -10 14 -2q51 25 88 24 q18 0 64 -10q63 -18 92 -24q10 -2 20 -3t21 -1q80 0 163 73q6 6 7 17q-4 10 -13 10q-4 0 -31.5 -15.5t-58.5 -15.5q-27 0 -59 12l-29 11q-53 20 -104 20q-106 -4 -170 -78q-8 -8 -4 -18zM340 252q2 68 76 108q25 14 157 60l31 14q63 23 107 64q0 -150 -9 -191 q-25 -117 -114 -172q-47 -29 -107 -29q-47 0 -82 23q-65 43 -59 123z" />
<glyph unicode="&#xe4;" horiz-adv-x="1042" d="M127 236q-14 -150 121 -226q63 -33 139 -33q152 0 322 132q0 -133 18 -142q16 -10 102 19q14 4 39 8t60 8q16 2 34.5 3t36.5 3q31 4 45.5 24.5t-0.5 39.5q-6 12 -34 18q-41 10 -58 21q-35 20 -45 61q-2 10 -2 109v251q0 113 -12 162q-20 98 -102 158q-70 51 -199 51 q-133 0 -227 -43q-172 -78 -185 -158q-10 -53 37 -88q33 -27 80 -10q33 12 68 53q14 16 26 33t27 33q51 57 123 76q82 23 135 -29q47 -45 33 -104q-18 -72 -113 -117q-25 -12 -141 -49l-66 -21q-127 -41 -184 -88q-70 -55 -78 -155zM332 1038q0 -33 21.5 -56.5t54.5 -23.5 t56 23t23 55q0 33 -21.5 56.5t-53.5 23.5q-33 0 -56.5 -22.5t-23.5 -55.5zM340 252q2 68 76 108q25 14 157 60l31 14q63 23 107 64q0 -150 -9 -191q-25 -117 -114 -172q-47 -29 -107 -29q-47 0 -82 23q-65 43 -59 123zM610 1038q0 -33 22.5 -56.5t53.5 -23.5q33 0 57.5 23 t24.5 55q0 33 -22.5 56.5t-55.5 23.5t-56.5 -22.5t-23.5 -55.5z" />
<glyph unicode="&#xe5;" horiz-adv-x="1042" d="M127 236q-14 -150 121 -226q63 -33 139 -33q152 0 322 132q0 -133 18 -142q16 -10 102 19q14 4 39 8t60 8q16 2 34.5 3t36.5 3q31 4 45.5 24.5t-0.5 39.5q-6 12 -34 18q-41 10 -58 21q-35 20 -45 61q-2 10 -2 109v251q0 113 -12 162q-20 98 -102 158q-70 51 -199 51 q-133 0 -227 -43q-172 -78 -185 -158q-10 -53 37 -88q33 -27 80 -10q33 12 68 53q14 16 26 33t27 33q51 57 123 76q82 23 135 -29q47 -45 33 -104q-18 -72 -113 -117q-25 -12 -141 -49l-66 -21q-127 -41 -184 -88q-70 -55 -78 -155zM340 252q2 68 76 108q25 14 157 60l31 14 q63 23 107 64q0 -150 -9 -191q-25 -117 -114 -172q-47 -29 -107 -29q-47 0 -82 23q-65 43 -59 123zM455 1067q0 -45 32.5 -77t77.5 -32t78 34t33 81q0 43 -34 74t-79 31t-76.5 -33t-31.5 -78zM498 1069q0 68 65 68q68 0 68 -68t-68 -68q-65 0 -65 68z" />
<glyph unicode="&#xe6;" horiz-adv-x="1439" d="M96 236q-14 -150 121 -226q57 -31 141 -30q51 0 106.5 12t108 34.5t97.5 54.5t78 69q76 -104 180 -150q78 -33 164 -33q133 0 260 84q84 59 84 107q0 37 -25 37q-16 0 -68 -31l-55 -28q-23 -11 -33 -15q-68 -23 -116 -23q-80 0 -137.5 51.5t-57.5 120.5q6 55 72 97 q16 10 46 21t75 26l82 26q102 33 143 60q68 45 68 131t-56 151q-90 104 -264 105h-29q-12 0 -26 -2q-86 0 -187 -76q-25 -16 -39 -31q-43 55 -67 74q-70 51 -199 51q-133 0 -227 -43q-174 -76 -184 -158q0 -51 26 -77q39 -41 90 -21q31 12 66 53q14 16 26.5 33t26.5 33 q51 57 123 76q80 20 135 -29q49 -43 35 -104q-18 -72 -113 -117q-27 -12 -143 -49l-66 -21q-127 -41 -184 -88q-70 -55 -78 -155zM311 252q2 68 74 104q41 16 80 31.5t78 32.5l32 14q72 31 107 64q0 -287 -123 -363q-47 -29 -106 -29q-47 0 -82 23q-64 41 -60 123zM881 508 q0 147 54 210.5t146 63.5q76 0 125 -75q39 -59 17 -105q-23 -47 -93 -80q-12 -8 -110 -47l-35 -14q-39 -16 -94 -68q-4 27 -7 54.5t-3 60.5z" />
<glyph unicode="&#xe7;" horiz-adv-x="890" d="M94 406q0 -291 303 -426l-16 -52q-8 -25 -8 -53l10 -8q45 18 68 37q33 8 61 -19q35 -39 20 -102q-12 -55 -51 -70q-23 -10 -41 0q-31 8 -26 31q23 16 22 35q0 14 -14 28.5t-39 6.5q-23 -10 -27 -41q-8 -37 29 -68q49 -39 125 -18q102 31 102 141q0 51 -31.5 85t-80.5 34 q-31 0 -70 -13l10 43q72 -8 129 -2q80 8 160 48q90 47 117 100q12 23 0 45q-23 23 -43 14q-35 -16 -62.5 -31.5t-66.5 -25.5q-66 -16 -129 -2q-74 16 -139 90q-111 131 -111 301q0 123 57 193q70 84 166 69q63 -8 107 -49q25 -16 55 -51q20 -20 53 -31q25 -8 48.5 -3 t41 20.5t25.5 39t2 50.5q-16 80 -123 116q-72 23 -147 23q-174 0 -306 -103q-180 -142 -180 -382z" />
<glyph unicode="&#xe8;" horiz-adv-x="862" d="M98 362q25 -262 252 -362q74 -33 162 -33q137 0 262 84q74 51 84 107q6 33 -24 37q-14 0 -68 -29q-33 -18 -55.5 -29.5t-32.5 -15.5q-68 -23 -117 -23q-78 0 -135 52q-66 59 -59 120q6 57 71 95q31 18 123 49l80 26q109 37 143 60q68 45 68 129q0 88 -55 153 q-90 104 -262 105h-29q-14 0 -29 -2q-94 -8 -186 -76q-104 -78 -158 -223q-45 -118 -35 -224zM303 512q0 141 54.5 207.5t146.5 62.5q74 -2 125 -75q25 -35 24 -68q0 -20 -8 -37q-20 -47 -90 -82q-29 -10 -56.5 -22.5t-56.5 -22.5l-34 -14q-37 -16 -93 -68q-12 51 -12 119z M397 1163q-10 -29 35 -61l182 -135q16 -10 29 -11q25 0 25 21q0 14 -19 37q-109 125 -141 160q-41 37 -68 34q-33 -2 -43 -45z" />
<glyph unicode="&#xe9;" horiz-adv-x="862" d="M98 362q25 -262 252 -362q74 -33 162 -33q137 0 262 84q74 51 84 107q6 33 -24 37q-14 0 -68 -29q-33 -18 -55.5 -29.5t-32.5 -15.5q-68 -23 -117 -23q-78 0 -135 52q-66 59 -59 120q6 57 71 95q31 18 123 49l80 26q109 37 143 60q68 45 68 129q0 88 -55 153 q-90 104 -262 105h-29q-14 0 -29 -2q-94 -8 -186 -76q-104 -78 -158 -223q-45 -118 -35 -224zM303 512q0 141 54.5 207.5t146.5 62.5q74 -2 125 -75q25 -35 24 -68q0 -20 -8 -37q-20 -47 -90 -82q-29 -10 -56.5 -22.5t-56.5 -22.5l-34 -14q-37 -16 -93 -68q-12 51 -12 119z M344 979q0 -23 25 -23q14 0 30 13l183 135q43 35 34 61q-14 41 -43 45q-29 2 -69 -34q-90 -96 -142 -160q-18 -23 -18 -37z" />
<glyph unicode="&#xea;" horiz-adv-x="862" d="M98 362q25 -262 252 -362q74 -33 162 -33q137 0 262 84q74 51 84 107q6 33 -24 37q-14 0 -68 -29q-33 -18 -55.5 -29.5t-32.5 -15.5q-68 -23 -117 -23q-78 0 -135 52q-66 59 -59 120q6 57 71 95q31 18 123 49l80 26q109 37 143 60q68 45 68 129q0 88 -55 153 q-90 104 -262 105h-29q-14 0 -29 -2q-94 -8 -186 -76q-104 -78 -158 -223q-45 -118 -35 -224zM295 971q0 -12 18 -13q12 0 31 7q57 18 96 30.5t62 18.5l157 -51q16 -4 25 -5q27 0 27 17q0 12 -25 31q-82 55 -131 81q-35 23 -53 23q-23 0 -82 -41l-103 -70q-22 -16 -22 -28z M303 512q0 141 54.5 207.5t146.5 62.5q74 -2 125 -75q25 -35 24 -68q0 -20 -8 -37q-20 -47 -90 -82q-29 -10 -56.5 -22.5t-56.5 -22.5l-34 -14q-37 -16 -93 -68q-12 51 -12 119z" />
<glyph unicode="&#xeb;" horiz-adv-x="862" d="M98 362q25 -262 252 -362q74 -33 162 -33q137 0 262 84q74 51 84 107q6 33 -24 37q-14 0 -68 -29q-33 -18 -55.5 -29.5t-32.5 -15.5q-68 -23 -117 -23q-78 0 -135 52q-66 59 -59 120q6 57 71 95q31 18 123 49l80 26q109 37 143 60q68 45 68 129q0 88 -55 153 q-90 104 -262 105h-29q-14 0 -29 -2q-94 -8 -186 -76q-104 -78 -158 -223q-45 -118 -35 -224zM268 1038q0 -33 21.5 -56.5t54.5 -23.5t56.5 23t23.5 55q0 33 -21.5 56.5t-54.5 23.5t-56.5 -22.5t-23.5 -55.5zM303 512q0 141 54.5 207.5t146.5 62.5q74 -2 125 -75 q25 -35 24 -68q0 -20 -8 -37q-20 -47 -90 -82q-29 -10 -56.5 -22.5t-56.5 -22.5l-34 -14q-37 -16 -93 -68q-12 51 -12 119zM547 1038q0 -33 22.5 -56.5t55.5 -23.5q31 0 55.5 24t24.5 54q0 33 -23 56.5t-55 23.5q-33 0 -56.5 -22.5t-23.5 -55.5z" />
<glyph unicode="&#xec;" horiz-adv-x="618" d="M98 45q0 -35 39 -43q8 -2 74 -2h299q66 0 74 2q39 8 39 43q0 39 -41 49q-37 8 -56.5 13.5t-23.5 7.5q-41 23 -41 96v569q0 31 6 67t6 42q0 27 -22 39q-20 8 -45 0q-66 -37 -136 -39q-16 -2 -38.5 -1t-53.5 3q-68 2 -67 -43q0 -45 59 -55q45 -6 61 -19q27 -20 27 -72v-491 q0 -74 -41 -96q-4 -2 -23.5 -7.5t-54.5 -13.5q-41 -10 -41 -49zM158 1165q-10 -29 37 -61l182 -135q16 -10 29 -11q25 0 24 21q0 14 -18 37q-109 125 -142 160q-41 37 -69 34q-31 -4 -43 -45z" />
<glyph unicode="&#xed;" horiz-adv-x="618" d="M98 45q0 -35 39 -43q8 -2 74 -2h299q66 0 74 2q39 8 39 43q0 39 -41 49q-37 8 -56.5 13.5t-23.5 7.5q-41 23 -41 96v569q0 31 6 67t6 42q0 27 -22 39q-20 8 -45 0q-66 -37 -136 -39q-16 -2 -38.5 -1t-53.5 3q-68 2 -67 -43q0 -45 59 -55q45 -6 61 -19q27 -20 27 -72v-491 q0 -74 -41 -96q-4 -2 -23.5 -7.5t-54.5 -13.5q-41 -10 -41 -49zM227 981q0 -20 25 -20q12 0 29 10l182 135q45 33 37 61q-12 41 -43 45q-29 2 -70 -34q-90 -96 -141 -160q-19 -23 -19 -37z" />
<glyph unicode="&#xee;" horiz-adv-x="618" d="M98 45q0 -35 39 -43q8 -2 74 -2h299q66 0 74 2q39 8 39 43q0 39 -41 49q-37 8 -56.5 13.5t-23.5 7.5q-41 23 -41 96v569q0 31 6 67t6 42q0 27 -22 39q-20 8 -45 0q-66 -37 -136 -39q-16 -2 -38.5 -1t-53.5 3q-68 2 -67 -43q0 -45 59 -55q45 -6 61 -19q27 -20 27 -72v-491 q0 -74 -41 -96q-4 -2 -23.5 -7.5t-54.5 -13.5q-41 -10 -41 -49zM109 971q0 -12 18 -13q12 0 31 7q113 37 159 49l156 -51q16 -4 25 -5q27 0 26 17q0 12 -24 31q-82 55 -131 81q-35 23 -54 23q-23 0 -82 -41l-102 -70q-22 -16 -22 -28z" />
<glyph unicode="&#xef;" horiz-adv-x="618" d="M98 45q0 -35 39 -43q8 -2 74 -2h299q66 0 74 2q39 8 39 43q0 39 -41 49q-37 8 -56.5 13.5t-23.5 7.5q-41 23 -41 96v569q0 31 6 67t6 42q0 27 -22 39q-20 8 -45 0q-66 -37 -136 -39q-16 -2 -38.5 -1t-53.5 3q-68 2 -67 -43q0 -45 59 -55q45 -6 61 -19q27 -20 27 -72v-491 q0 -74 -41 -96q-4 -2 -23.5 -7.5t-54.5 -13.5q-41 -10 -41 -49zM137 1038q0 -33 22.5 -56.5t55.5 -23.5q31 0 55.5 24t24.5 54q0 33 -22.5 56.5t-55.5 23.5t-56.5 -22.5t-23.5 -55.5zM418 1038q0 -33 21.5 -56.5t54.5 -23.5t56 23t23 55q0 33 -21.5 56.5t-53.5 23.5 q-33 0 -56.5 -22.5t-23.5 -55.5z" />
<glyph unicode="&#xf1;" horiz-adv-x="1155" d="M111 45q0 -20 11 -29.5t27.5 -12.5t34.5 -3h37h277h34q20 0 37 3t27 12.5t10 29.5q0 37 -22.5 43t-50 12t-50 25.5t-22.5 85.5v235v86q0 43 9 81t29.5 70t61.5 56q37 23 85 22t79 -18q35 -18 52.5 -46.5t24.5 -62.5t7 -71v-67v-285q0 -68 -18.5 -87.5t-40 -24.5t-39 -10 t-17.5 -44q0 -20 11.5 -29.5t28 -12.5t36.5 -3h37h215h39q20 0 35.5 3t26 12.5t10.5 29.5q0 37 -18.5 41t-41 9t-41 26.5t-18.5 89.5v401q0 92 -31 160t-125 105q-86 35 -193.5 4t-203.5 -103q0 59 9 89t-7 51q-23 27 -57 10q-18 -10 -57.5 -23.5t-78.5 -15.5q-29 -2 -49 -1 t-43 3q-33 2 -50 -10.5t-17 -32.5q0 -29 15 -40t44 -15q16 -2 32.5 -5.5t29 -12.5t19.5 -26.5t7 -46.5v-491q0 -66 -23.5 -85.5t-51 -24.5t-50 -12t-22.5 -44zM486.5 977q5.5 -8 15.5 -2q37 18 62.5 22t50 0t54 -13t76.5 -19q104 -23 205 69q10 8 5 21.5t-31 -2.5 q-16 -12 -48 -20.5t-81 9.5l-27 11q-84 33 -155.5 17.5t-120.5 -75.5q-11 -10 -5.5 -18z" />
<glyph unicode="&#xf2;" horiz-adv-x="1064" d="M98 422q4 -188 135 -318q137 -137 361 -137q199 0 336 133q135 135 133 338q-4 207 -139 330q-133 125 -351 125q-207 0 -344 -137q-135 -135 -131 -334zM309 512q0 203 150 254q37 12 76 12q88 0 163 -63q82 -70 125 -193q29 -86 29 -170q0 -205 -141 -262 q-43 -18 -88 -18q-88 0 -165 65.5t-114 175.5q-35 105 -35 199zM506 1165q-10 -29 37 -61l182 -135q16 -10 29 -11q25 0 24 21q0 14 -18 37q-109 125 -142 160q-41 37 -69 34q-31 -4 -43 -45z" />
<glyph unicode="&#xf3;" horiz-adv-x="1064" d="M98 422q4 -188 135 -318q137 -137 361 -137q199 0 336 133q135 135 133 338q-4 207 -139 330q-133 125 -351 125q-207 0 -344 -137q-135 -135 -131 -334zM293 985q0 -23 24 -22q12 0 29 10l182 137q45 33 35 61q-10 43 -41 46q-29 4 -69 -37q-45 -47 -80 -87t-62 -71 q-18 -23 -18 -37zM309 512q0 203 150 254q37 12 76 12q88 0 163 -63q82 -70 125 -193q29 -86 29 -170q0 -205 -141 -262q-43 -18 -88 -18q-88 0 -165 65.5t-114 175.5q-35 105 -35 199z" />
<glyph unicode="&#xf4;" horiz-adv-x="1064" d="M98 422q4 -188 135 -318q137 -137 361 -137q199 0 336 133q135 135 133 338q-4 207 -139 330q-133 125 -351 125q-207 0 -344 -137q-135 -135 -131 -334zM309 512q0 203 150 254q37 12 76 12q88 0 163 -63q82 -70 125 -193q29 -86 29 -170q0 -205 -141 -262 q-43 -18 -88 -18q-88 0 -165 65.5t-114 175.5q-35 105 -35 199zM383 971q0 -12 18 -13q14 0 33 7q57 18 96 30.5t62 18.5l156 -51q53 -16 53 10q0 14 -27 33q-43 29 -74.5 48t-54.5 33q-35 23 -55 23q-23 0 -82 -41q-27 -16 -51.5 -34.5t-50.5 -35.5q-23 -16 -23 -28z" />
<glyph unicode="&#xf5;" horiz-adv-x="1064" d="M98 422q4 -188 135 -318q137 -137 361 -137q199 0 336 133q135 135 133 338q-4 207 -139 330q-133 125 -351 125q-207 0 -344 -137q-135 -135 -131 -334zM309 512q0 203 150 254q37 12 76 12q88 0 163 -63q82 -70 125 -193q29 -86 29 -170q0 -205 -141 -262 q-43 -18 -88 -18q-88 0 -165 65.5t-114 175.5q-35 105 -35 199zM356 979q4 -10 15 -2q49 25 86 24q18 0 63 -10q66 -18 90.5 -23t44.5 -5q80 0 162 71q6 6 6 17q0 12 -10 12q-12 0 -22 -8q-33 -20 -70 -21q-23 0 -57 10l-29 11q-53 20 -107 20q-102 0 -170 -78q-8 -8 -2 -18 z" />
<glyph unicode="&#xf6;" horiz-adv-x="1064" d="M98 422q4 -188 135 -318q137 -137 361 -137q199 0 336 133q135 135 133 338q-4 207 -139 330q-133 125 -351 125q-207 0 -344 -137q-135 -135 -131 -334zM309 512q0 203 150 254q37 12 76 12q88 0 163 -63q82 -70 125 -193q29 -86 29 -170q0 -205 -141 -262 q-43 -18 -88 -18q-88 0 -165 65.5t-114 175.5q-35 105 -35 199zM399 1038q0 -33 21.5 -56.5t54.5 -23.5t56.5 23t23.5 55q0 33 -21.5 56.5t-54.5 23.5t-56.5 -22.5t-23.5 -55.5zM678 1038q0 -33 21.5 -56.5t54.5 -23.5t56.5 23t23.5 55q0 33 -21.5 56.5t-54.5 23.5 t-56.5 -22.5t-23.5 -55.5z" />
<glyph unicode="&#xf7;" horiz-adv-x="1124" d="M78 639h969v168h-969v-168zM459 319h205v205h-205v-205zM459 922h205v204h-205v-204z" />
<glyph unicode="&#xf8;" horiz-adv-x="1064" d="M98 422q2 -193 164 -342q-16 -27 -27.5 -45.5t-19.5 -30.5q-2 -2 -2 -8q0 -10 8 -21.5t21.5 -21.5t30 -17.5t30.5 -7.5t25 11q43 59 51 67q102 -39 215 -39q197 0 334 133q137 135 135 338q-2 205 -154 346l45 66q4 8 4 14q0 23 -31.5 46.5t-62.5 23.5q-20 0 -28 -12 l-48 -66q-98 37 -215 37q-207 0 -344 -137q-135 -135 -131 -334zM309 506q0 209 150 260q49 18 92 18q80 0 145 -59l-321 -475q-23 31 -31 63q-35 99 -35 193zM467 131l324 473q4 -10 13 -30.5t19 -51.5q29 -86 29 -170q0 -205 -141 -262q-39 -16 -80 -16q-88 0 -164 57z " />
<glyph unicode="&#xf9;" horiz-adv-x="1171" d="M111 848q0 -45 59 -55q45 -6 61 -19q27 -20 27 -72v-364q0 -152 14 -195q29 -98 138 -147q55 -27 125 -27q137 0 274 109q0 -109 12 -117q14 -10 31 -10q25 0 84 24q94 25 135 25q63 0 72 2q37 8 37 43q0 39 -41 49q-72 16 -78 19q-41 25 -41 98v569q0 31 6 67t6 42 q0 27 -22 39q-20 8 -45 0q-66 -37 -136 -39q-16 -2 -38.5 -1t-53.5 3q-70 2 -69 -43q0 -45 59 -55q47 -6 66 -19q29 -23 28 -72v-309q0 -127 -8 -151q-16 -59 -92 -105q-47 -29 -94 -28q-45 0 -80 20q-61 35 -80 125q-6 37 -6 147v379q0 31 6 67t6 42q0 27 -22 39 q-20 8 -45 0q-66 -37 -136 -39q-16 -2 -38.5 -1t-53.5 3q-67 2 -67 -43zM543 1167q-10 -29 35 -61l182 -135q16 -10 28 -10q25 0 25 20q0 14 -18 37q-109 125 -142 160q-41 37 -69 34q-31 -2 -41 -45z" />
<glyph unicode="&#xfa;" horiz-adv-x="1171" d="M111 848q0 -45 59 -55q45 -6 61 -19q27 -20 27 -72v-364q0 -152 14 -195q29 -98 138 -147q55 -27 125 -27q137 0 274 109q0 -109 12 -117q14 -10 31 -10q25 0 84 24q94 25 135 25q63 0 72 2q37 8 37 43q0 39 -41 49q-72 16 -78 19q-41 25 -41 98v569q0 31 6 67t6 42 q0 27 -22 39q-20 8 -45 0q-66 -37 -136 -39q-16 -2 -38.5 -1t-53.5 3q-70 2 -69 -43q0 -45 59 -55q47 -6 66 -19q29 -23 28 -72v-309q0 -127 -8 -151q-16 -59 -92 -105q-47 -29 -94 -28q-45 0 -80 20q-61 35 -80 125q-6 37 -6 147v379q0 31 6 67t6 42q0 27 -22 39 q-20 8 -45 0q-66 -37 -136 -39q-16 -2 -38.5 -1t-53.5 3q-67 2 -67 -43zM494 981q0 -20 24 -20q12 0 29 10l182 135q45 33 37 61q-12 41 -43 45q-29 2 -70 -34q-90 -96 -141 -160q-18 -23 -18 -37z" />
<glyph unicode="&#xfb;" horiz-adv-x="1171" d="M111 848q0 -45 59 -55q45 -6 61 -19q27 -20 27 -72v-364q0 -152 14 -195q29 -98 138 -147q55 -27 125 -27q137 0 274 109q0 -109 12 -117q14 -10 31 -10q25 0 84 24q94 25 135 25q63 0 72 2q37 8 37 43q0 39 -41 49q-72 16 -78 19q-41 25 -41 98v569q0 31 6 67t6 42 q0 27 -22 39q-20 8 -45 0q-66 -37 -136 -39q-16 -2 -38.5 -1t-53.5 3q-70 2 -69 -43q0 -45 59 -55q47 -6 66 -19q29 -23 28 -72v-309q0 -127 -8 -151q-16 -59 -92 -105q-47 -29 -94 -28q-45 0 -80 20q-61 35 -80 125q-6 37 -6 147v379q0 31 6 67t6 42q0 27 -22 39 q-20 8 -45 0q-66 -37 -136 -39q-16 -2 -38.5 -1t-53.5 3q-67 2 -67 -43zM406 971q0 -12 18 -13q14 0 33 7q57 18 96 30.5t61 18.5l156 -49q51 -14 51 10q0 12 -24 31q-82 55 -131 81q-35 23 -54 23q-23 0 -82 -41l-102 -70q-22 -16 -22 -28z" />
<glyph unicode="&#xfc;" horiz-adv-x="1171" d="M111 848q0 -45 59 -55q45 -6 61 -19q27 -20 27 -72v-364q0 -152 14 -195q29 -98 138 -147q55 -27 125 -27q137 0 274 109q0 -109 12 -117q14 -10 31 -10q25 0 84 24q94 25 135 25q63 0 72 2q37 8 37 43q0 39 -41 49q-72 16 -78 19q-41 25 -41 98v569q0 31 6 67t6 42 q0 27 -22 39q-20 8 -45 0q-66 -37 -136 -39q-16 -2 -38.5 -1t-53.5 3q-70 2 -69 -43q0 -45 59 -55q47 -6 66 -19q29 -23 28 -72v-309q0 -127 -8 -151q-16 -59 -92 -105q-47 -29 -94 -28q-45 0 -80 20q-61 35 -80 125q-6 37 -6 147v379q0 31 6 67t6 42q0 27 -22 39 q-20 8 -45 0q-66 -37 -136 -39q-16 -2 -38.5 -1t-53.5 3q-67 2 -67 -43zM434 1038q0 -33 21.5 -56.5t54.5 -23.5t56.5 23t23.5 55q0 33 -21.5 56.5t-54.5 23.5t-56.5 -22.5t-23.5 -55.5zM713 1038q0 -33 22.5 -56.5t52.5 -23.5q33 0 57.5 23t24.5 55q0 33 -22.5 56.5 t-54.5 23.5q-33 0 -56.5 -22.5t-23.5 -55.5z" />
<glyph unicode="&#xfd;" horiz-adv-x="1032" d="M98 819q0 -35 8 -35q2 0 9.5 2t15.5 2q51 0 125 -135l207 -381q63 -117 80 -141q-31 -66 -52.5 -113t-35.5 -77q-92 -203 -93 -283q0 -98 84 -117q63 -14 95 22t37 93q-2 -16 -3 10v90v27q0 168 121 403l293 572q0 4 39 67q16 33 16 47q0 12 -8 21q-20 27 -57 10.5 t-67.5 -27t-55.5 -12.5q-18 -2 -40.5 -1t-49.5 3q-70 6 -70 -43q0 -51 60 -55q72 -6 71 -47q0 -18 -14 -45l-168 -324l-176 310q-10 37 -10 55q0 35 45 49t43 53q0 33 -39 41q-8 2 -24.5 3t-45.5 1h-227q-53 0 -74 -4q-39 -8 -39 -41zM463 981q0 -23 26 -23q12 0 29 11 l182 135q43 35 35 61q-14 41 -43 45q-27 2 -67 -34q-45 -49 -81 -89t-63 -71q-18 -23 -18 -35z" />
<glyph unicode="&#xff;" horiz-adv-x="1032" d="M98 819q0 -35 8 -35q2 0 9.5 2t15.5 2q51 0 125 -135l207 -381q63 -117 80 -141q-31 -66 -52.5 -113t-35.5 -77q-92 -203 -93 -283q0 -98 84 -117q63 -14 95 22t37 93q-2 -16 -3 10v90v27q0 168 121 403l293 572q0 4 39 67q16 33 16 47q0 12 -8 21q-20 27 -57 10.5 t-67.5 -27t-55.5 -12.5q-18 -2 -40.5 -1t-49.5 3q-70 6 -70 -43q0 -51 60 -55q72 -6 71 -47q0 -18 -14 -45l-168 -324l-176 310q-10 37 -10 55q0 35 45 49t43 53q0 33 -39 41q-8 2 -24.5 3t-45.5 1h-227q-53 0 -74 -4q-39 -8 -39 -41zM403 975q0 -33 23 -56.5t55 -23.5 q31 0 55.5 23.5t24.5 54.5q0 33 -22.5 56.5t-55.5 23.5t-56.5 -22.5t-23.5 -55.5zM684 975q0 -33 21.5 -56.5t54.5 -23.5t56.5 23.5t23.5 54.5q0 33 -21.5 56.5t-54.5 23.5t-56.5 -22.5t-23.5 -55.5z" />
<glyph unicode="&#x152;" horiz-adv-x="1925" d="M100 707q0 -289 185 -492q211 -233 516 -233q45 0 92 6l102 12h572q76 0 119 -1t53 -3q31 -10 33 -64q4 -37 45 -28q31 6 51 63q8 29 16 58.5t19 58.5l26 88q33 104 33 133q0 23 -17.5 37t-37.5 6q-51 -51 -80 -96q-47 -66 -98 -98q-90 -61 -191 -62q-53 0 -98 23 q-74 41 -92 143q-4 20 -6.5 61t-2.5 101v260h170q57 -4 93 -25q16 -10 35.5 -29.5t41.5 -47.5q47 -57 54 -60q29 -10 49 14q10 10 10 31q0 14 -45 156l-18 59q-45 147 -78 164q-29 12 -47 -10q-10 -10 -11 -25q0 -6 3 -22.5t3 -24.5q0 -20 -8 -31q-23 -37 -164 -36h-88v469 q29 2 52.5 3t44.5 1q205 0 290 -107q25 -31 35.5 -49t16.5 -29.5t13 -18.5t26 -13q29 -4 43 20q6 8 6 27q0 39 -31 125l-74 202q-20 63 -65 47q-23 -10 -25 -36q0 -39 -13 -50.5t-59 -11.5h-354q-51 0 -90 3t-68 7l-55 11q-125 23 -233 22q-215 0 -359 -84 q-297 -176 -336 -559q-2 -16 -3 -32.5t-1 -32.5zM358 803q0 186 70 293q90 139 229 184q68 23 129 23q119 0 228 -78q63 -47 80 -111q2 -10 3 -43t1 -90v-625q0 -109 -2 -114q-6 -61 -43 -92q-59 -47 -199 -48q-43 0 -70 7q-141 37 -223 116q-82 78 -143 234 q-60 160 -60 344z" />
<glyph unicode="&#x153;" horiz-adv-x="1622" d="M100 432q0 -63 17 -119q70 -248 327 -325q55 -18 119 -19q203 0 383 150q123 -117 242 -139q20 -4 40.5 -6.5t43.5 -2.5q184 0 305 121q47 47 41 74t-31 29q-8 2 -88 -41q-41 -23 -88 -35q-20 -4 -40.5 -7t-43.5 -3q-49 0 -89 14t-65.5 36.5t-38 53.5t-6.5 63q8 51 95 95 q29 10 55.5 21t52.5 22l80 32q113 45 135 62q68 45 68 121q0 72 -37 127q-84 125 -260 133q-199 12 -354 -162q-137 135 -312 164q-29 4 -54.5 6t-49.5 2q-219 0 -342 -156q-105 -133 -105 -311zM309 506q0 205 150 260q33 12 73 12q88 0 164 -63q84 -72 127 -193 q29 -86 29 -170q0 -205 -141 -262q-43 -18 -88 -18q-88 0 -163 65.5t-116 175.5q-35 99 -35 193zM1067 508q0 147 54.5 212.5t146.5 61.5q74 -2 125 -75q25 -35 24 -68q0 -20 -8 -37q-20 -49 -90 -82q-29 -10 -56.5 -22.5t-56.5 -22.5l-35 -14q-39 -16 -94 -68 q-4 27 -7 54.5t-3 60.5z" />
<glyph unicode="&#x178;" horiz-adv-x="1210" d="M45 1159q2 -45 51 -45q8 0 23.5 5t31 11.5t31 11.5t25.5 5q20 0 35 -8q106 -51 215 -242q94 -166 127 -319v-367q0 -74 -41 -96q-4 -2 -23.5 -7.5t-54.5 -13.5q-41 -10 -41 -49q0 -35 39 -43q8 -2 74 -2h335q63 0 72 2q39 8 39 43q0 39 -41 49q-72 16 -78 19 q-41 25 -41 98v414l355 616q20 33 20 64q0 68 -115 67h-161q-66 0 -76 47q-8 47 -37 51q-39 2 -55 -26q-23 -59 -43.5 -115.5t-36.5 -109.5q-8 -16 -8 -31q0 -31 57 -31h164q68 0 67 -20q0 -14 -43 -88l-159 -281q-16 41 -34 84t-34 84q-66 160 -162 285q-125 162 -248 174 q-57 6 -112 -72q-10 -6 -62 -74q-59 -74 -55 -90zM514 1595q0 -33 21.5 -56t54.5 -23t56.5 22.5t23.5 54.5q0 33 -21.5 55.5t-54.5 22.5t-56.5 -21.5t-23.5 -54.5zM793 1595q0 -33 22.5 -56t54.5 -23q31 0 55.5 23.5t24.5 53.5q0 33 -22.5 55.5t-55.5 22.5t-56 -21.5 t-23 -54.5z" />
<glyph unicode="&#x2c6;" horiz-adv-x="862" d="M295 971q0 -12 18 -13q12 0 31 7q57 18 96 30.5t62 18.5l157 -51q16 -4 25 -5q27 0 27 17q0 12 -25 31q-82 55 -131 81q-35 23 -53 23q-23 0 -82 -41l-103 -70q-22 -16 -22 -28z" />
<glyph unicode="&#x2dc;" horiz-adv-x="1064" d="M356 979q4 -10 15 -2q49 25 86 24q18 0 63 -10q66 -18 90.5 -23t44.5 -5q80 0 162 71q6 6 6 17q0 12 -10 12q-12 0 -22 -8q-33 -20 -70 -21q-23 0 -57 10l-29 11q-53 20 -107 20q-102 0 -170 -78q-8 -8 -2 -18z" />
<glyph unicode="&#x2000;" horiz-adv-x="888" />
<glyph unicode="&#x2001;" horiz-adv-x="1779" />
<glyph unicode="&#x2002;" horiz-adv-x="888" />
<glyph unicode="&#x2003;" horiz-adv-x="1779" />
<glyph unicode="&#x2004;" horiz-adv-x="591" />
<glyph unicode="&#x2005;" horiz-adv-x="444" />
<glyph unicode="&#x2006;" horiz-adv-x="294" />
<glyph unicode="&#x2007;" horiz-adv-x="294" />
<glyph unicode="&#x2008;" horiz-adv-x="221" />
<glyph unicode="&#x2009;" horiz-adv-x="354" />
<glyph unicode="&#x200a;" horiz-adv-x="98" />
<glyph unicode="&#x2010;" horiz-adv-x="724" d="M100 426q0 35 47 45q8 2 29 2h55h330q72 0 82 -2q47 -10 47 -45q0 -45 -127 -45h-336q-127 0 -127 45z" />
<glyph unicode="&#x2011;" horiz-adv-x="724" d="M100 426q0 35 47 45q8 2 29 2h55h330q72 0 82 -2q47 -10 47 -45q0 -45 -127 -45h-336q-127 0 -127 45z" />
<glyph unicode="&#x2012;" horiz-adv-x="724" d="M100 426q0 35 47 45q8 2 29 2h55h330q72 0 82 -2q47 -10 47 -45q0 -45 -127 -45h-336q-127 0 -127 45z" />
<glyph unicode="&#x2013;" horiz-adv-x="557" d="M119 428q0 45 55 45h289q57 0 57 -45q0 -47 -57 -47h-289q-55 0 -55 47z" />
<glyph unicode="&#x2014;" horiz-adv-x="724" d="M117 428q0 45 57 45h473q57 0 58 -45q0 -47 -58 -47h-473q-57 0 -57 47z" />
<glyph unicode="&#x2018;" horiz-adv-x="358" d="M131 1145q0 -51 23 -86q33 -45 98 -45q61 0 90 55q25 47 4 94q-10 25 -49 54q-18 8 -33.5 17t-19.5 28q-8 39 75 137q10 8 9 14q-2 8 -17 2q-115 -47 -166 -186q-14 -37 -14 -84z" />
<glyph unicode="&#x2019;" horiz-adv-x="358" d="M135 1264q8 -20 51 -52q8 -4 16.5 -9t18.5 -9q14 -10 17 -29q8 -45 -76 -135q-10 -10 -8 -16t18 0q111 39 166 184q16 43 16 84q0 51 -24 86q-35 47 -99 47q-66 0 -92 -55q-24 -47 -4 -96z" />
<glyph unicode="&#x201a;" horiz-adv-x="358" d="M135 41q8 -23 51 -49q8 -4 16.5 -9.5t18.5 -9.5q14 -10 17 -28q8 -45 -76 -135q-10 -10 -8 -16.5t18 -0.5q111 39 166 184q16 43 16 82q0 51 -24 86q-35 47 -99 48q-66 0 -92 -56q-24 -47 -4 -96z" />
<glyph unicode="&#x201c;" horiz-adv-x="770" d="M152 1145q0 -51 22 -86q33 -45 98 -45q61 0 90 55q25 47 5 94q-10 25 -50 54q-18 8 -33.5 17t-19.5 28q-8 39 76 137q10 8 8 14q-2 8 -16 2q-115 -47 -166 -186q-14 -37 -14 -84zM522 1141q0 -49 23 -82q31 -45 100 -45q61 0 90 55q25 47 4 94q-8 23 -51 54 q-16 8 -31.5 17t-19.5 28q-8 43 76 137q10 8 8 14q-2 8 -16 2q-115 -47 -166 -186q-17 -45 -17 -88z" />
<glyph unicode="&#x201d;" horiz-adv-x="770" d="M158 1264q8 -18 18 -27q8 -8 33 -25q16 -8 31.5 -17t19.5 -30q8 -45 -76 -135q-10 -10 -8 -16t19 0q113 41 163 184q16 49 17 88q0 47 -23 82q-35 47 -98 47q-66 0 -92 -55q-24 -47 -4 -96zM530 1264q8 -18 19 -27q8 -8 33 -25q16 -8 31.5 -17t19.5 -30q8 -45 -76 -135 q-12 -8 -8 -16q4 -6 16 0q113 43 166 184q16 49 17 88q0 47 -23 82q-35 47 -100 47q-63 0 -90 -55q-25 -47 -5 -96z" />
<glyph unicode="&#x201e;" horiz-adv-x="770" d="M158 41q8 -18 18 -27q4 -4 11.5 -9t21.5 -13q16 -8 31.5 -17.5t19.5 -29.5q8 -45 -76 -135q-10 -10 -8 -16.5t19 -0.5q113 41 163 184q16 43 17 86q0 47 -23 82q-35 47 -98 48q-66 0 -92 -56q-24 -47 -4 -96zM530 41q8 -18 19 -27q4 -4 11 -9t22 -13q16 -8 31.5 -17.5 t19.5 -29.5q8 -45 -76 -135q-12 -8 -8 -17q4 -6 16 0q113 43 166 184q16 43 17 86q0 47 -23 82q-35 47 -100 48q-63 0 -90 -56q-25 -47 -5 -96z" />
<glyph unicode="&#x2022;" horiz-adv-x="671" d="M0 645q0 -61 20.5 -112.5t57.5 -87t87 -56t111 -20.5t111.5 20.5t87.5 56t57.5 87t20.5 112.5t-20.5 112.5t-57.5 87.5t-87 56.5t-112 20.5q-61 0 -111 -20.5t-87 -56.5t-57.5 -87.5t-20.5 -112.5z" />
<glyph unicode="&#x2026;" horiz-adv-x="1075" d="M137 98q0 -43 31 -72.5t74 -29.5t73.5 29.5t30.5 72.5t-30.5 74t-73.5 31t-74 -31t-31 -74zM496 98q0 -43 30.5 -72.5t73.5 -29.5t74 29.5t31 72.5t-31 74t-74 31t-73.5 -31t-30.5 -74zM854 98q0 -43 30.5 -72.5t73.5 -29.5t74 29.5t31 72.5t-31 74t-74 31t-73.5 -31 t-30.5 -74z" />
<glyph unicode="&#x202f;" horiz-adv-x="354" />
<glyph unicode="&#x2039;" horiz-adv-x="323" d="M106 453q0 -27 21 -66q16 -29 32.5 -58.5t33.5 -58.5l45 -84q14 -27 34 -26q31 0 17 51l-80 248l82 233q8 18 8 35q0 27 -18 27q-25 0 -45 -39l-43 -80q-87 -164 -87 -182z" />
<glyph unicode="&#x203a;" horiz-adv-x="323" d="M106 184q0 -25 17 -24q23 0 45 37l43 79q88 162 88 185t-23 63q-16 29 -32.5 58.5t-32.5 58.5l-45 84q-16 29 -35 29q-33 0 -16 -54l80 -247l-82 -234q-7 -23 -7 -35z" />
<glyph unicode="&#x205f;" horiz-adv-x="444" />
<glyph unicode="&#x2122;" horiz-adv-x="2805" d="M1210 2q8 -2 72 -2h248q63 0 69 2q39 8 39 43q0 43 -82 57.5t-82 73.5q0 8 1.5 16.5t3.5 18.5l174 754q94 -201 159 -422q14 -47 25.5 -91t21.5 -90q6 -16 25 -102q10 -53 31 -65q25 -14 51 0q12 6 21.5 23.5t17.5 42t14 53t13 55.5q100 399 225 579l153 -737 q6 -25 7 -45q0 -53 -46 -68q-20 -2 -39.5 -4t-41.5 -6q-41 -6 -41 -43q0 -35 39 -43q8 -2 73 -2h338q61 0 70 2q39 8 39 43v4q0 33 -33 43q-68 16 -70 19q-43 25 -57 100l-176 926q27 12 55 12q45 0 92 -41q10 -14 22.5 -26.5t24.5 -26.5q18 -18 43 -19q45 0 56 47 q2 20 -49 136q-16 33 -31 63.5t-31 60.5q-23 59 -117 60q-270 0 -540 -647q-51 117 -85 192.5t-55 114.5q-94 184 -192 271t-184 87q-29 0 -56 -16q-25 -18 -82 -135q-45 -92 -55 -121q-11 -22 -11 -38.5t11 -29.5q23 -16 45 -8q16 4 26.5 16.5t20.5 26.5q37 49 74 49 q41 0 80 -45l-205 -909q-14 -74 -59 -98l-18 -4q-17 -4 -52 -15q-31 -9 -31 -41q0 -42 41 -51zM53 1100q0 -45 40 -46q3 0 7 1q27 0 41 24l29 49q29 41 57.5 70t57.5 43q43 20 139 21v-1051q0 -74 -41 -96q-4 -2 -23.5 -7.5t-54.5 -13.5q-41 -10 -41 -49q0 -35 39 -43 q8 -2 74 -2h336q63 0 71 2q39 8 39 43q0 39 -41 49q-72 16 -77 19q-41 25 -41 98v1051q57 0 92 -1t45 -4q59 -8 82 -59q10 -41 15 -72.5t7 -54.5q8 -37 49 -20q23 4 41 59l54 154q41 119 41 157q0 31 -21 45q-8 7 -17 7q-10 0 -22 -9q-2 -2 -29 -53q-20 -39 -55 -39h-622 q-68 0 -76 49q-10 49 -45 49q-31 0 -49 -32q-4 -6 -19 -56l-47 -147q-35 -110 -35 -135z" />
<glyph unicode="&#xe000;" horiz-adv-x="895" d="M0 895h895v-895h-895v895z" />
<glyph unicode="&#xfb01;" horiz-adv-x="1282" d="M762 45q0 -35 39 -43q8 -2 74 -2h299q66 0 74 2q39 8 39 43q0 39 -41 49q-74 14 -80 19q-41 23 -41 98v569q0 31 6 67t6 42q0 27 -22 39q-20 8 -45 0q-66 -37 -136 -39q-16 -2 -38.5 -1t-53.5 3h-6q-62 0 -61 -43q0 -45 59 -55q45 -6 61 -19q27 -20 27 -72v-491 q0 -74 -41 -98q-6 -2 -78 -19q-41 -10 -41 -49zM875 1182q0 -55 38 -92t91 -37q55 0 93 38.5t38 92.5q0 55 -38 92t-93 37q-53 0 -91 -37t-38 -94zM92 813q0 -49 68 -49h98v-987q0 -61 -27 -101q-16 -23 -61 -61q-29 -23 -2 -51q13 -17 30 -17q12 0 27 9l316 168 q39 18 41 43q4 35 -14.5 45t-45.5 2q-11 -3 -19 -4q-42 0 -42 73v881h112q33 0 68 -4t41 -4q12 0 21.5 10t14.5 23.5t7 27.5t-2 25q-8 16 -49 20h-131h-82v336q0 184 45 217q30 24 62 24q18 0 36 -7q20 -8 72 -58q55 -49 79.5 -55t48 2t39 23.5t23.5 36.5q5 12 5 26 q0 10 -3 20q-16 70 -123 109q-53 18 -110 18q-117 0 -211 -71q-102 -80 -141 -234q-25 -104 -25 -280v-107h-100q-66 0 -66 -49z" />
<glyph unicode="&#xfb02;" horiz-adv-x="1282" d="M766 45q0 -35 39 -43q8 -2 74 -2h293q63 0 72 2q39 8 38 43q0 39 -40 49q-70 14 -76 19q-41 25 -41 98v1130q0 59 26 99q8 10 23.5 26.5t38.5 36.5q10 10 10 25q2 14 -8 24q-14 17 -32 18q-12 0 -25 -7l-316 -168q-37 -20 -39 -43q-6 -31 14.5 -43.5t43.5 -5.5q6 2 18 2 q43 0 43 -70v-1024q0 -74 -41 -96q-6 -6 -74 -21q-41 -10 -41 -49zM92 813q0 -49 68 -49h98v-987q0 -61 -27 -101q-16 -23 -61 -61q-29 -23 -2 -51q13 -17 30 -17q12 0 27 9l316 168q39 18 41 43q4 35 -14.5 45t-45.5 2q-11 -3 -19 -4q-42 0 -42 73v881h112q33 0 68 -4 t41 -4q12 0 21.5 10t14.5 23.5t7 27.5t-2 25q-8 16 -49 20h-131h-82v336q0 184 45 217q30 24 62 24q18 0 36 -7q20 -8 72 -58q55 -49 79.5 -55t48 2t39 23.5t23.5 36.5q5 12 5 26q0 10 -3 20q-16 70 -123 109q-53 18 -110 18q-117 0 -211 -71q-102 -80 -141 -234 q-25 -104 -25 -280v-107h-100q-66 0 -66 -49z" />
<glyph unicode="&#xfb03;" horiz-adv-x="1945" d="M1425 45q0 -35 39 -43q8 -2 74 -2h299q66 0 74 2q39 8 39 43q0 39 -41 49q-74 14 -80 19q-41 23 -41 98v569q0 31 6 67t6 42q0 27 -22 39q-20 8 -45 0q-66 -37 -136 -39q-16 -2 -38.5 -1t-53.5 3h-6q-62 0 -61 -43q0 -45 59 -55q45 -6 61 -19q27 -20 27 -72v-491 q0 -74 -41 -98q-6 -2 -78 -19q-41 -10 -41 -49zM1538 1182q0 -55 38 -92t91 -37q55 0 93 38.5t38 92.5q0 55 -38 92t-93 37q-53 0 -91 -37t-38 -94zM756 813q0 -49 68 -49h98v-987q0 -61 -27 -101q-16 -23 -61 -61q-29 -23 -2 -51q13 -17 30 -17q12 0 27 9l316 168 q39 18 41 43q4 35 -14.5 45t-45.5 2q-11 -3 -19 -4q-42 0 -42 73v881h112q33 0 68 -4t41 -4q12 0 21.5 10t14.5 23.5t7 27.5t-2 25q-8 16 -49 20h-131h-82v336q0 184 45 217q30 24 62 24q18 0 36 -7q20 -8 72 -58q55 -49 79.5 -55t48 2t39 23.5t23.5 36.5q5 12 5 26 q0 10 -3 20q-16 70 -123 109q-53 18 -110 18q-117 0 -211 -71q-102 -80 -141 -234q-25 -104 -25 -280v-107h-100q-66 0 -66 -49zM92 813q0 -49 68 -49h98v-987q0 -61 -27 -101q-16 -23 -61 -61q-29 -23 -2 -51q13 -17 30 -17q12 0 27 9l316 168q39 18 41 43q4 35 -14.5 45 t-45.5 2q-11 -3 -19 -4q-42 0 -42 73v881h112q33 0 68 -4t41 -4q12 0 21.5 10t14.5 23.5t7 27.5t-2 25q-8 16 -49 20h-131h-82v336q0 184 45 217q30 24 62 24q18 0 36 -7q20 -8 72 -58q55 -49 79.5 -55t48 2t39 23.5t23.5 36.5q5 12 5 26q0 10 -3 20q-16 70 -123 109 q-53 18 -110 18q-117 0 -211 -71q-102 -80 -141 -234q-25 -104 -25 -280v-107h-100q-66 0 -66 -49z" />
<glyph unicode="&#xfb04;" horiz-adv-x="1945" d="M1429 45q0 -35 39 -43q8 -2 74 -2h293q63 0 72 2q39 8 38 43q0 39 -40 49q-70 14 -76 19q-41 25 -41 98v1130q0 59 26 99q8 10 23.5 26.5t38.5 36.5q10 10 10 25q2 14 -8 24q-14 17 -32 18q-12 0 -25 -7l-316 -168q-37 -20 -39 -43q-6 -31 14.5 -43.5t43.5 -5.5q6 2 18 2 q43 0 43 -70v-1024q0 -74 -41 -96q-6 -6 -74 -21q-41 -10 -41 -49zM756 813q0 -49 68 -49h98v-987q0 -61 -27 -101q-16 -23 -61 -61q-29 -23 -2 -51q13 -17 30 -17q12 0 27 9l316 168q39 18 41 43q4 35 -14.5 45t-45.5 2q-11 -3 -19 -4q-42 0 -42 73v881h112q33 0 68 -4 t41 -4q12 0 21.5 10t14.5 23.5t7 27.5t-2 25q-8 16 -49 20h-131h-82v336q0 184 45 217q30 24 62 24q18 0 36 -7q20 -8 72 -58q55 -49 79.5 -55t48 2t39 23.5t23.5 36.5q5 12 5 26q0 10 -3 20q-16 70 -123 109q-53 18 -110 18q-117 0 -211 -71q-102 -80 -141 -234 q-25 -104 -25 -280v-107h-100q-66 0 -66 -49zM92 813q0 -49 68 -49h98v-987q0 -61 -27 -101q-16 -23 -61 -61q-29 -23 -2 -51q13 -17 30 -17q12 0 27 9l316 168q39 18 41 43q4 35 -14.5 45t-45.5 2q-11 -3 -19 -4q-42 0 -42 73v881h112q33 0 68 -4t41 -4q12 0 21.5 10 t14.5 23.5t7 27.5t-2 25q-8 16 -49 20h-131h-82v336q0 184 45 217q30 24 62 24q18 0 36 -7q20 -8 72 -58q55 -49 79.5 -55t48 2t39 23.5t23.5 36.5q5 12 5 26q0 10 -3 20q-16 70 -123 109q-53 18 -110 18q-117 0 -211 -71q-102 -80 -141 -234q-25 -104 -25 -280v-107h-100 q-66 0 -66 -49z" />
</font>
</defs>
</svg>
